<mxfile host="app.diagrams.net" agent="Mozilla/5.0 (X11; Linux x86_64) AppleWebKit/537.36 (KHTML, like Gecko) Chrome/134.0.0.0 Safari/537.36" version="26.1.0">
  <diagram name="Page-1" id="SkEKgCQDsDRQQQ8Bk1pQ">
    <mxGraphModel dx="5000" dy="6165" grid="1" gridSize="10" guides="1" tooltips="1" connect="1" arrows="1" fold="1" page="1" pageScale="1" pageWidth="850" pageHeight="1100" math="0" shadow="0">
      <root>
        <mxCell id="0" />
        <mxCell id="1" parent="0" />
        <mxCell id="mL6CW5X_RLIltcqBg0Fq-128" value="" style="rounded=0;whiteSpace=wrap;html=1;fillColor=#FFFFFF;strokeColor=#FF2A01;movable=1;resizable=1;rotatable=1;deletable=1;editable=1;locked=0;connectable=1;strokeWidth=3;container=0;" parent="1" vertex="1">
          <mxGeometry x="1010" y="-2180" width="186.3" height="160" as="geometry" />
        </mxCell>
        <mxCell id="mL6CW5X_RLIltcqBg0Fq-92" style="edgeStyle=orthogonalEdgeStyle;rounded=0;orthogonalLoop=1;jettySize=auto;html=1;entryX=0;entryY=0.5;entryDx=0;entryDy=0;strokeWidth=5;" parent="1" source="mL6CW5X_RLIltcqBg0Fq-75" target="mL6CW5X_RLIltcqBg0Fq-88" edge="1">
          <mxGeometry relative="1" as="geometry">
            <Array as="points">
              <mxPoint x="410" y="-3080" />
              <mxPoint x="410" y="-3080" />
            </Array>
          </mxGeometry>
        </mxCell>
        <mxCell id="mL6CW5X_RLIltcqBg0Fq-82" style="edgeStyle=orthogonalEdgeStyle;rounded=0;orthogonalLoop=1;jettySize=auto;html=1;strokeWidth=5;" parent="1" source="mL6CW5X_RLIltcqBg0Fq-75" target="mL6CW5X_RLIltcqBg0Fq-78" edge="1">
          <mxGeometry relative="1" as="geometry">
            <Array as="points">
              <mxPoint x="200" y="-2350" />
            </Array>
          </mxGeometry>
        </mxCell>
        <mxCell id="mL6CW5X_RLIltcqBg0Fq-4" value="" style="rounded=0;whiteSpace=wrap;html=1;fillColor=#f5f5f5;strokeColor=#666666;opacity=90;movable=0;resizable=0;rotatable=0;deletable=0;editable=0;locked=1;connectable=0;fontColor=#333333;" parent="1" vertex="1">
          <mxGeometry x="80" y="-1640" width="330" height="180" as="geometry" />
        </mxCell>
        <mxCell id="mL6CW5X_RLIltcqBg0Fq-79" value="" style="rounded=0;whiteSpace=wrap;html=1;fillColor=#f8cecc;strokeColor=#b85450;opacity=30;movable=1;resizable=1;rotatable=1;deletable=1;editable=1;locked=0;connectable=1;" parent="1" vertex="1">
          <mxGeometry x="77.4" y="-1230" width="972.6" height="470" as="geometry" />
        </mxCell>
        <mxCell id="mL6CW5X_RLIltcqBg0Fq-13" value="" style="swimlane;startSize=0;fillColor=none;strokeWidth=3;dashed=1;" parent="1" vertex="1">
          <mxGeometry x="252.6" y="-1600" width="600" height="820" as="geometry" />
        </mxCell>
        <mxCell id="mL6CW5X_RLIltcqBg0Fq-14" value="&lt;b&gt;Subnet&lt;/b&gt;&lt;div&gt;env-subnet_default&lt;/div&gt;" style="image;aspect=fixed;html=1;points=[];align=center;fontSize=12;image=img/lib/azure2/networking/Subnet.svg;imageBackground=default;" parent="mL6CW5X_RLIltcqBg0Fq-13" vertex="1">
          <mxGeometry x="61" y="49.27999999999997" width="68" height="40.72" as="geometry" />
        </mxCell>
        <mxCell id="mL6CW5X_RLIltcqBg0Fq-15" style="edgeStyle=orthogonalEdgeStyle;rounded=0;orthogonalLoop=1;jettySize=auto;html=1;strokeColor=#FF00FF;" parent="mL6CW5X_RLIltcqBg0Fq-13" source="mL6CW5X_RLIltcqBg0Fq-16" target="mL6CW5X_RLIltcqBg0Fq-17" edge="1">
          <mxGeometry relative="1" as="geometry">
            <Array as="points">
              <mxPoint x="424" y="570" />
              <mxPoint x="316" y="570" />
            </Array>
          </mxGeometry>
        </mxCell>
        <mxCell id="mL6CW5X_RLIltcqBg0Fq-16" value="&lt;b&gt;Private Endpoint&lt;/b&gt;&lt;div&gt;env-pe-databricks_browser_authentication&lt;/div&gt;" style="image;aspect=fixed;html=1;points=[];align=center;fontSize=12;image=img/lib/azure2/other/Private_Endpoints.svg;" parent="mL6CW5X_RLIltcqBg0Fq-13" vertex="1">
          <mxGeometry x="390" y="456.0000000000001" width="68" height="64.68" as="geometry" />
        </mxCell>
        <mxCell id="mL6CW5X_RLIltcqBg0Fq-17" value="&lt;b&gt;Databricks Private Link&lt;/b&gt;&lt;div&gt;env-dns_vnet_link-databricks&lt;/div&gt;" style="image;aspect=fixed;html=1;points=[];align=center;fontSize=12;image=img/lib/azure2/networking/Private_Link.svg;" parent="mL6CW5X_RLIltcqBg0Fq-13" vertex="1">
          <mxGeometry x="440" y="620" width="72" height="66" as="geometry" />
        </mxCell>
        <mxCell id="mL6CW5X_RLIltcqBg0Fq-18" style="edgeStyle=orthogonalEdgeStyle;rounded=0;orthogonalLoop=1;jettySize=auto;html=1;" parent="mL6CW5X_RLIltcqBg0Fq-13" source="mL6CW5X_RLIltcqBg0Fq-20" target="mL6CW5X_RLIltcqBg0Fq-21" edge="1">
          <mxGeometry relative="1" as="geometry">
            <mxPoint x="-67" y="740.2211111111109" as="sourcePoint" />
            <Array as="points">
              <mxPoint x="-10" y="653" />
              <mxPoint x="-10" y="653" />
            </Array>
          </mxGeometry>
        </mxCell>
        <mxCell id="mL6CW5X_RLIltcqBg0Fq-19" style="edgeStyle=orthogonalEdgeStyle;rounded=0;orthogonalLoop=1;jettySize=auto;html=1;" parent="mL6CW5X_RLIltcqBg0Fq-13" source="mL6CW5X_RLIltcqBg0Fq-20" target="mL6CW5X_RLIltcqBg0Fq-22" edge="1">
          <mxGeometry relative="1" as="geometry">
            <mxPoint x="-95.88888888888891" y="774.11" as="sourcePoint" />
            <Array as="points">
              <mxPoint x="-100" y="740" />
              <mxPoint x="95" y="740" />
            </Array>
          </mxGeometry>
        </mxCell>
        <mxCell id="mL6CW5X_RLIltcqBg0Fq-20" value="&lt;b&gt;Databricks Workspace&lt;/b&gt;&lt;div&gt;env-dbw&lt;/div&gt;" style="image;aspect=fixed;html=1;points=[];align=center;fontSize=12;image=img/lib/azure2/analytics/Azure_Databricks.svg;" parent="mL6CW5X_RLIltcqBg0Fq-13" vertex="1">
          <mxGeometry x="-129.8" y="600" width="62.8" height="68" as="geometry" />
        </mxCell>
        <mxCell id="mL6CW5X_RLIltcqBg0Fq-21" value="&lt;b&gt;Subnet&lt;/b&gt;&lt;div&gt;env-subnet_public_databricks&lt;/div&gt;" style="image;aspect=fixed;html=1;points=[];align=center;fontSize=12;image=img/lib/azure2/networking/Subnet.svg;imageBackground=default;" parent="mL6CW5X_RLIltcqBg0Fq-13" vertex="1">
          <mxGeometry x="61" y="632.64" width="68" height="40.72" as="geometry" />
        </mxCell>
        <mxCell id="mL6CW5X_RLIltcqBg0Fq-22" value="&lt;b&gt;Subnet&lt;/b&gt;&lt;div&gt;env-subnet_private_databricks&lt;/div&gt;" style="image;aspect=fixed;html=1;points=[];align=center;fontSize=12;image=img/lib/azure2/networking/Subnet.svg;imageBackground=default;" parent="mL6CW5X_RLIltcqBg0Fq-13" vertex="1">
          <mxGeometry x="61" y="720" width="68" height="40.72" as="geometry" />
        </mxCell>
        <mxCell id="mL6CW5X_RLIltcqBg0Fq-23" style="edgeStyle=orthogonalEdgeStyle;rounded=0;orthogonalLoop=1;jettySize=auto;html=1;strokeColor=#FF3333;" parent="mL6CW5X_RLIltcqBg0Fq-13" source="mL6CW5X_RLIltcqBg0Fq-25" target="mL6CW5X_RLIltcqBg0Fq-21" edge="1">
          <mxGeometry relative="1" as="geometry" />
        </mxCell>
        <mxCell id="mL6CW5X_RLIltcqBg0Fq-24" style="edgeStyle=orthogonalEdgeStyle;rounded=0;orthogonalLoop=1;jettySize=auto;html=1;strokeColor=#FF3333;" parent="mL6CW5X_RLIltcqBg0Fq-13" source="mL6CW5X_RLIltcqBg0Fq-25" target="mL6CW5X_RLIltcqBg0Fq-22" edge="1">
          <mxGeometry relative="1" as="geometry">
            <Array as="points">
              <mxPoint x="258" y="740" />
            </Array>
          </mxGeometry>
        </mxCell>
        <mxCell id="mL6CW5X_RLIltcqBg0Fq-25" value="&lt;b&gt;Network Security Group&lt;/b&gt;&lt;div&gt;env-nsg_databricks&lt;/div&gt;" style="image;aspect=fixed;html=1;points=[];align=center;fontSize=12;image=img/lib/azure2/networking/Network_Security_Groups.svg;" parent="mL6CW5X_RLIltcqBg0Fq-13" vertex="1">
          <mxGeometry x="240" y="631.18" width="35.94" height="43.64" as="geometry" />
        </mxCell>
        <mxCell id="ZaWyxYJnoPDAj6jRP7Kb-88" value="&lt;h1 style=&quot;margin-top: 0px;&quot;&gt;Era fixe poder passar uma lista de cluster definitions.&lt;/h1&gt;" style="text;html=1;whiteSpace=wrap;overflow=hidden;rounded=0;" parent="1" vertex="1">
          <mxGeometry x="1130" y="-390" width="180" height="120" as="geometry" />
        </mxCell>
        <mxCell id="ZaWyxYJnoPDAj6jRP7Kb-89" value="&lt;h1 style=&quot;color: rgb(0, 0, 0); font-family: Helvetica; font-style: normal; font-variant-ligatures: normal; font-variant-caps: normal; letter-spacing: normal; orphans: 2; text-align: left; text-indent: 0px; text-transform: none; widows: 2; word-spacing: 0px; -webkit-text-stroke-width: 0px; white-space: normal; background-color: rgb(251, 251, 251); text-decoration-thickness: initial; text-decoration-style: initial; text-decoration-color: initial; margin-top: 0px;&quot;&gt;List of storage accounts &amp;amp; list of containers&lt;/h1&gt;" style="text;whiteSpace=wrap;html=1;" parent="1" vertex="1">
          <mxGeometry x="610" y="-290" width="560" height="100" as="geometry" />
        </mxCell>
        <mxCell id="mL6CW5X_RLIltcqBg0Fq-1" style="edgeStyle=orthogonalEdgeStyle;rounded=0;orthogonalLoop=1;jettySize=auto;html=1;" parent="1" source="mL6CW5X_RLIltcqBg0Fq-59" target="mL6CW5X_RLIltcqBg0Fq-66" edge="1">
          <mxGeometry relative="1" as="geometry">
            <Array as="points">
              <mxPoint x="2106" y="-1510" />
            </Array>
          </mxGeometry>
        </mxCell>
        <mxCell id="mL6CW5X_RLIltcqBg0Fq-2" value="" style="rounded=0;whiteSpace=wrap;html=1;fillColor=#d5e8d4;strokeColor=#82b366;opacity=30;" parent="1" vertex="1">
          <mxGeometry x="1670" y="-1700" width="950" height="1130" as="geometry" />
        </mxCell>
        <mxCell id="mL6CW5X_RLIltcqBg0Fq-3" style="edgeStyle=orthogonalEdgeStyle;rounded=0;orthogonalLoop=1;jettySize=auto;html=1;" parent="1" source="mL6CW5X_RLIltcqBg0Fq-33" target="mL6CW5X_RLIltcqBg0Fq-49" edge="1">
          <mxGeometry relative="1" as="geometry">
            <Array as="points">
              <mxPoint x="1142.6" y="-630" />
              <mxPoint x="1142.6" y="-730" />
            </Array>
          </mxGeometry>
        </mxCell>
        <mxCell id="mL6CW5X_RLIltcqBg0Fq-5" value="&lt;font style=&quot;font-size: 30px;&quot;&gt;&lt;b&gt;root&lt;/b&gt;&lt;/font&gt;" style="text;html=1;align=left;verticalAlign=middle;whiteSpace=wrap;rounded=0;labelBackgroundColor=default;" parent="1" vertex="1">
          <mxGeometry x="80" y="-1676.1" width="117.4" height="30" as="geometry" />
        </mxCell>
        <mxCell id="mL6CW5X_RLIltcqBg0Fq-6" value="&lt;font style=&quot;font-size: 40px;&quot;&gt;Workload:&lt;b&gt; env&lt;/b&gt;&lt;/font&gt;" style="text;html=1;align=center;verticalAlign=middle;whiteSpace=wrap;rounded=0;" parent="1" vertex="1">
          <mxGeometry x="1670" y="-1750" width="320" height="30" as="geometry" />
        </mxCell>
        <mxCell id="mL6CW5X_RLIltcqBg0Fq-7" value="&lt;b&gt;Resource Group&lt;/b&gt;&lt;div&gt;env-rg&lt;/div&gt;" style="image;aspect=fixed;html=1;points=[];align=center;fontSize=12;image=img/lib/azure2/general/Resource_Groups.svg;" parent="1" vertex="1">
          <mxGeometry x="120.2" y="-1609.9999999999998" width="68" height="64" as="geometry" />
        </mxCell>
        <mxCell id="mL6CW5X_RLIltcqBg0Fq-8" style="edgeStyle=orthogonalEdgeStyle;rounded=0;orthogonalLoop=1;jettySize=auto;html=1;" parent="1" source="mL6CW5X_RLIltcqBg0Fq-11" target="mL6CW5X_RLIltcqBg0Fq-40" edge="1">
          <mxGeometry relative="1" as="geometry">
            <mxPoint x="572.6" y="-1290" as="targetPoint" />
            <Array as="points">
              <mxPoint x="427.6" y="-1290" />
            </Array>
          </mxGeometry>
        </mxCell>
        <mxCell id="mL6CW5X_RLIltcqBg0Fq-9" value="&lt;b&gt;ELSE&lt;/b&gt;" style="edgeLabel;html=1;align=center;verticalAlign=middle;resizable=0;points=[];" parent="mL6CW5X_RLIltcqBg0Fq-8" vertex="1" connectable="0">
          <mxGeometry x="0.0917" y="1" relative="1" as="geometry">
            <mxPoint x="-31" as="offset" />
          </mxGeometry>
        </mxCell>
        <mxCell id="mL6CW5X_RLIltcqBg0Fq-10" style="edgeStyle=orthogonalEdgeStyle;rounded=0;orthogonalLoop=1;jettySize=auto;html=1;strokeColor=#FF00FF;" parent="1" source="mL6CW5X_RLIltcqBg0Fq-11" target="mL6CW5X_RLIltcqBg0Fq-41" edge="1">
          <mxGeometry relative="1" as="geometry">
            <mxPoint x="575.6000000000003" y="-1430" as="targetPoint" />
          </mxGeometry>
        </mxCell>
        <mxCell id="mL6CW5X_RLIltcqBg0Fq-11" value="&lt;b&gt;IF&lt;/b&gt;&lt;div&gt;user specifies&lt;/div&gt;&lt;div&gt;storage accounts &lt;b&gt;&lt;font color=&quot;#ff00ff&quot;&gt;ALREADY&lt;/font&gt;&lt;/b&gt;&lt;/div&gt;&lt;div&gt;&lt;b&gt;&lt;font color=&quot;#ff00ff&quot;&gt;EXIST&lt;/font&gt;&lt;/b&gt;&lt;/div&gt;" style="rhombus;whiteSpace=wrap;html=1;strokeColor=#FF00FF;" parent="1" vertex="1">
          <mxGeometry x="362.6" y="-1480" width="130" height="100" as="geometry" />
        </mxCell>
        <mxCell id="mL6CW5X_RLIltcqBg0Fq-12" value="" style="swimlane;startSize=0;fillColor=none;strokeWidth=3;dashed=1;strokeColor=#007AF5;" parent="1" vertex="1">
          <mxGeometry x="345.6" y="-1530" width="477" height="530" as="geometry" />
        </mxCell>
        <mxCell id="mL6CW5X_RLIltcqBg0Fq-26" value="&lt;b&gt;Virtual Network&lt;/b&gt;&lt;div&gt;env-vnet&lt;/div&gt;" style="image;aspect=fixed;html=1;points=[];align=center;fontSize=12;image=img/lib/azure2/networking/Virtual_Networks.svg;imageBackground=default;" parent="1" vertex="1">
          <mxGeometry x="222.6" y="-1620" width="67" height="40" as="geometry" />
        </mxCell>
        <mxCell id="mL6CW5X_RLIltcqBg0Fq-27" style="edgeStyle=orthogonalEdgeStyle;rounded=0;orthogonalLoop=1;jettySize=auto;html=1;strokeColor=#FF00FF;" parent="1" source="mL6CW5X_RLIltcqBg0Fq-28" target="mL6CW5X_RLIltcqBg0Fq-17" edge="1">
          <mxGeometry relative="1" as="geometry">
            <Array as="points">
              <mxPoint x="456.6" y="-1030" />
              <mxPoint x="568.6" y="-1030" />
            </Array>
          </mxGeometry>
        </mxCell>
        <mxCell id="mL6CW5X_RLIltcqBg0Fq-28" value="&lt;b&gt;Private Endpoint&lt;/b&gt;&lt;div&gt;env-pe-databricks_ui_api&lt;/div&gt;" style="image;aspect=fixed;html=1;points=[];align=center;fontSize=12;image=img/lib/azure2/other/Private_Endpoints.svg;" parent="1" vertex="1">
          <mxGeometry x="422.6" y="-1143.3400000000001" width="68" height="64.68" as="geometry" />
        </mxCell>
        <mxCell id="mL6CW5X_RLIltcqBg0Fq-29" style="edgeStyle=orthogonalEdgeStyle;rounded=0;orthogonalLoop=1;jettySize=auto;html=1;strokeColor=#FF00FF;" parent="1" source="mL6CW5X_RLIltcqBg0Fq-34" target="mL6CW5X_RLIltcqBg0Fq-28" edge="1">
          <mxGeometry relative="1" as="geometry">
            <Array as="points">
              <mxPoint x="154.6" y="-1170" />
              <mxPoint x="456.6" y="-1170" />
            </Array>
          </mxGeometry>
        </mxCell>
        <mxCell id="mL6CW5X_RLIltcqBg0Fq-30" value="&lt;b&gt;DNS Zone&lt;/b&gt;&lt;div&gt;privatelink.azuredatabricks.net&lt;/div&gt;" style="image;aspect=fixed;html=1;points=[];align=center;fontSize=12;image=img/lib/azure2/networking/DNS_Zones.svg;" parent="1" vertex="1">
          <mxGeometry x="920" y="-980" width="64" height="64" as="geometry" />
        </mxCell>
        <mxCell id="mL6CW5X_RLIltcqBg0Fq-31" style="edgeStyle=orthogonalEdgeStyle;rounded=0;orthogonalLoop=1;jettySize=auto;html=1;strokeColor=#FF00FF;" parent="1" source="mL6CW5X_RLIltcqBg0Fq-17" target="mL6CW5X_RLIltcqBg0Fq-30" edge="1">
          <mxGeometry relative="1" as="geometry" />
        </mxCell>
        <mxCell id="mL6CW5X_RLIltcqBg0Fq-32" style="edgeStyle=orthogonalEdgeStyle;rounded=0;orthogonalLoop=1;jettySize=auto;html=1;" parent="1" edge="1">
          <mxGeometry relative="1" as="geometry">
            <mxPoint x="1012.6" y="-630.0011764705882" as="sourcePoint" />
            <mxPoint x="1282.6" y="-630.0011764705882" as="targetPoint" />
            <Array as="points">
              <mxPoint x="1042.6" y="-630.06" />
              <mxPoint x="1042.6" y="-630.06" />
            </Array>
          </mxGeometry>
        </mxCell>
        <mxCell id="mL6CW5X_RLIltcqBg0Fq-33" value="&lt;b&gt;Data Factory&lt;/b&gt;&lt;div&gt;env-adf&lt;/div&gt;" style="image;aspect=fixed;html=1;points=[];align=center;fontSize=12;image=img/lib/azure2/databases/Data_Factory.svg;" parent="1" vertex="1">
          <mxGeometry x="1362" y="-1068" width="68" height="68" as="geometry" />
        </mxCell>
        <mxCell id="mL6CW5X_RLIltcqBg0Fq-34" value="&lt;b&gt;IF&lt;/b&gt;&lt;div&gt;user specifies &lt;font color=&quot;#ff00ff&quot;&gt;&lt;b&gt;PREMIUM&lt;/b&gt;&lt;/font&gt;&lt;/div&gt;&lt;div&gt;SKU&lt;/div&gt;" style="rhombus;whiteSpace=wrap;html=1;strokeColor=#FF00FF;" parent="1" vertex="1">
          <mxGeometry x="105.2" y="-1215" width="98" height="90" as="geometry" />
        </mxCell>
        <mxCell id="mL6CW5X_RLIltcqBg0Fq-35" value="" style="edgeStyle=orthogonalEdgeStyle;rounded=0;orthogonalLoop=1;jettySize=auto;html=1;strokeColor=#FF00FF;" parent="1" source="mL6CW5X_RLIltcqBg0Fq-20" target="mL6CW5X_RLIltcqBg0Fq-34" edge="1">
          <mxGeometry relative="1" as="geometry">
            <mxPoint x="154.6" y="-1000" as="sourcePoint" />
            <mxPoint x="456.6" y="-1143" as="targetPoint" />
            <Array as="points" />
          </mxGeometry>
        </mxCell>
        <mxCell id="mL6CW5X_RLIltcqBg0Fq-36" value="" style="edgeStyle=orthogonalEdgeStyle;rounded=0;orthogonalLoop=1;jettySize=auto;html=1;strokeColor=#000000;" parent="1" source="mL6CW5X_RLIltcqBg0Fq-20" target="mL6CW5X_RLIltcqBg0Fq-34" edge="1">
          <mxGeometry relative="1" as="geometry">
            <mxPoint x="354.6" y="-960" as="sourcePoint" />
            <mxPoint x="876.6" y="-1104" as="targetPoint" />
            <Array as="points" />
          </mxGeometry>
        </mxCell>
        <mxCell id="mL6CW5X_RLIltcqBg0Fq-38" style="edgeStyle=orthogonalEdgeStyle;rounded=0;orthogonalLoop=1;jettySize=auto;html=1;" parent="1" source="mL6CW5X_RLIltcqBg0Fq-40" target="mL6CW5X_RLIltcqBg0Fq-54" edge="1">
          <mxGeometry relative="1" as="geometry">
            <Array as="points">
              <mxPoint x="1092.6" y="-1294" />
              <mxPoint x="1092.6" y="-1424" />
            </Array>
          </mxGeometry>
        </mxCell>
        <mxCell id="mL6CW5X_RLIltcqBg0Fq-39" style="edgeStyle=orthogonalEdgeStyle;rounded=0;orthogonalLoop=1;jettySize=auto;html=1;" parent="1" source="mL6CW5X_RLIltcqBg0Fq-40" target="mL6CW5X_RLIltcqBg0Fq-62" edge="1">
          <mxGeometry relative="1" as="geometry">
            <Array as="points">
              <mxPoint x="1092.6" y="-1294" />
              <mxPoint x="1092.6" y="-1595" />
            </Array>
          </mxGeometry>
        </mxCell>
        <mxCell id="mL6CW5X_RLIltcqBg0Fq-40" value="&lt;b&gt;Storage Accounts&lt;/b&gt;&lt;div&gt;env-adls_&lt;b&gt;[NAME]&lt;/b&gt;&lt;/div&gt;" style="image;aspect=fixed;html=1;points=[];align=center;fontSize=12;image=img/lib/azure2/storage/Storage_Accounts.svg;" parent="1" vertex="1">
          <mxGeometry x="562.6" y="-1320" width="65" height="52" as="geometry" />
        </mxCell>
        <mxCell id="mL6CW5X_RLIltcqBg0Fq-41" value="&lt;b&gt;Private Endpoint&lt;/b&gt;&lt;div&gt;env-pe_adls_&lt;b&gt;[NAME]&lt;/b&gt;&lt;/div&gt;&lt;div&gt;&lt;br&gt;&lt;/div&gt;&lt;div&gt;Connects to existing storage accounts.&lt;/div&gt;" style="image;aspect=fixed;html=1;points=[];align=center;fontSize=12;image=img/lib/azure2/other/Private_Endpoints.svg;" parent="1" vertex="1">
          <mxGeometry x="562.6" y="-1462.34" width="68" height="64.68" as="geometry" />
        </mxCell>
        <mxCell id="mL6CW5X_RLIltcqBg0Fq-42" style="edgeStyle=orthogonalEdgeStyle;rounded=0;orthogonalLoop=1;jettySize=auto;html=1;endArrow=none;endFill=0;strokeColor=#00E000;strokeWidth=2;" parent="1" source="mL6CW5X_RLIltcqBg0Fq-43" target="mL6CW5X_RLIltcqBg0Fq-47" edge="1">
          <mxGeometry relative="1" as="geometry" />
        </mxCell>
        <mxCell id="mL6CW5X_RLIltcqBg0Fq-43" value="&lt;b&gt;Linked Service&lt;/b&gt;&lt;div&gt;env-linked_service-adls_&lt;b&gt;[NAME]&lt;/b&gt;&lt;/div&gt;" style="image;aspect=fixed;html=1;points=[];align=center;fontSize=12;image=img/lib/azure2/networking/Private_Link_Hub.svg;" parent="1" vertex="1">
          <mxGeometry x="1750" y="-1350" width="58.8" height="68" as="geometry" />
        </mxCell>
        <mxCell id="mL6CW5X_RLIltcqBg0Fq-44" style="edgeStyle=orthogonalEdgeStyle;rounded=0;orthogonalLoop=1;jettySize=auto;html=1;endArrow=none;endFill=0;strokeColor=#00E000;strokeWidth=2;" parent="1" source="mL6CW5X_RLIltcqBg0Fq-47" target="mL6CW5X_RLIltcqBg0Fq-49" edge="1">
          <mxGeometry relative="1" as="geometry" />
        </mxCell>
        <mxCell id="mL6CW5X_RLIltcqBg0Fq-45" style="edgeStyle=orthogonalEdgeStyle;rounded=0;orthogonalLoop=1;jettySize=auto;html=1;strokeColor=#00E000;strokeWidth=2;" parent="1" source="mL6CW5X_RLIltcqBg0Fq-47" target="mL6CW5X_RLIltcqBg0Fq-52" edge="1">
          <mxGeometry relative="1" as="geometry">
            <Array as="points">
              <mxPoint x="1710" y="-1103" />
              <mxPoint x="1710" y="-1103" />
            </Array>
          </mxGeometry>
        </mxCell>
        <mxCell id="mL6CW5X_RLIltcqBg0Fq-46" style="edgeStyle=orthogonalEdgeStyle;rounded=0;orthogonalLoop=1;jettySize=auto;html=1;strokeColor=#00E000;strokeWidth=2;" parent="1" source="mL6CW5X_RLIltcqBg0Fq-43" target="mL6CW5X_RLIltcqBg0Fq-40" edge="1">
          <mxGeometry relative="1" as="geometry">
            <Array as="points">
              <mxPoint x="1221.6" y="-1290" />
            </Array>
          </mxGeometry>
        </mxCell>
        <mxCell id="mL6CW5X_RLIltcqBg0Fq-47" value="&lt;b&gt;Linked Service&lt;/b&gt;&lt;div&gt;env-linked_service-akv&lt;/div&gt;" style="image;aspect=fixed;html=1;points=[];align=center;fontSize=12;image=img/lib/azure2/networking/Private_Link_Hub.svg;" parent="1" vertex="1">
          <mxGeometry x="1927.4" y="-1155" width="58.8" height="68" as="geometry" />
        </mxCell>
        <mxCell id="mL6CW5X_RLIltcqBg0Fq-48" style="edgeStyle=orthogonalEdgeStyle;rounded=0;orthogonalLoop=1;jettySize=auto;html=1;fillColor=#fff2cc;strokeColor=#00E000;strokeWidth=2;" parent="1" source="mL6CW5X_RLIltcqBg0Fq-49" target="mL6CW5X_RLIltcqBg0Fq-20" edge="1">
          <mxGeometry relative="1" as="geometry">
            <Array as="points">
              <mxPoint x="1221.6" y="-740" />
              <mxPoint x="62.6" y="-740" />
              <mxPoint x="62.6" y="-966" />
            </Array>
          </mxGeometry>
        </mxCell>
        <mxCell id="mL6CW5X_RLIltcqBg0Fq-49" value="&lt;b&gt;Linked Service&lt;/b&gt;&lt;div&gt;env-linked_service-dbw&lt;/div&gt;" style="image;aspect=fixed;html=1;points=[];align=center;fontSize=12;image=img/lib/azure2/networking/Private_Link_Hub.svg;" parent="1" vertex="1">
          <mxGeometry x="1750" y="-810" width="58.8" height="68" as="geometry" />
        </mxCell>
        <mxCell id="mL6CW5X_RLIltcqBg0Fq-50" style="edgeStyle=orthogonalEdgeStyle;rounded=0;orthogonalLoop=1;jettySize=auto;html=1;" parent="1" source="mL6CW5X_RLIltcqBg0Fq-51" target="mL6CW5X_RLIltcqBg0Fq-49" edge="1">
          <mxGeometry relative="1" as="geometry">
            <Array as="points">
              <mxPoint x="1874" y="-776" />
            </Array>
          </mxGeometry>
        </mxCell>
        <mxCell id="mL6CW5X_RLIltcqBg0Fq-51" value="&lt;b&gt;Managed Private Endpoint&lt;/b&gt;&lt;div&gt;env-managed_pe-adf_to_dbw&lt;/div&gt;" style="image;aspect=fixed;html=1;points=[];align=center;fontSize=12;image=img/lib/azure2/other/Private_Endpoints.svg;" parent="1" vertex="1">
          <mxGeometry x="1840" y="-696.68" width="68" height="64.68" as="geometry" />
        </mxCell>
        <mxCell id="mL6CW5X_RLIltcqBg0Fq-52" value="&lt;b&gt;Key Vault&lt;/b&gt;&lt;div&gt;env-akv&lt;/div&gt;" style="image;aspect=fixed;html=1;points=[];align=center;fontSize=12;image=img/lib/azure2/security/Key_Vaults.svg;" parent="1" vertex="1">
          <mxGeometry x="1670" y="-1130" width="68" height="68" as="geometry" />
        </mxCell>
        <mxCell id="mL6CW5X_RLIltcqBg0Fq-53" value="&lt;b&gt;Databricks Shared Clusters&lt;/b&gt;&lt;div&gt;env-cluster_shared_&lt;b&gt;[NAME]&lt;/b&gt;&lt;/div&gt;" style="image;aspect=fixed;html=1;points=[];align=center;fontSize=12;image=img/lib/azure2/databases/Virtual_Clusters.svg;" parent="1" vertex="1">
          <mxGeometry x="2480" y="-1656.6" width="66" height="64" as="geometry" />
        </mxCell>
        <mxCell id="mL6CW5X_RLIltcqBg0Fq-54" value="&lt;b&gt;Storage Containers&lt;/b&gt;&lt;div&gt;env-adls_container_&lt;b&gt;[NAME]&lt;/b&gt;&lt;/div&gt;" style="image;aspect=fixed;html=1;points=[];align=center;fontSize=12;image=img/lib/azure2/general/Storage_Container.svg;" parent="1" vertex="1">
          <mxGeometry x="1750" y="-1479.66" width="64" height="52" as="geometry" />
        </mxCell>
        <mxCell id="mL6CW5X_RLIltcqBg0Fq-55" style="edgeStyle=orthogonalEdgeStyle;rounded=0;orthogonalLoop=1;jettySize=auto;html=1;" parent="1" source="mL6CW5X_RLIltcqBg0Fq-57" target="mL6CW5X_RLIltcqBg0Fq-67" edge="1">
          <mxGeometry relative="1" as="geometry" />
        </mxCell>
        <mxCell id="mL6CW5X_RLIltcqBg0Fq-56" style="edgeStyle=orthogonalEdgeStyle;rounded=0;orthogonalLoop=1;jettySize=auto;html=1;" parent="1" source="mL6CW5X_RLIltcqBg0Fq-57" target="mL6CW5X_RLIltcqBg0Fq-53" edge="1">
          <mxGeometry relative="1" as="geometry" />
        </mxCell>
        <mxCell id="mL6CW5X_RLIltcqBg0Fq-57" value="&lt;b&gt;Unity Catalog&lt;/b&gt;" style="image;aspect=fixed;html=1;points=[];align=center;fontSize=12;image=img/lib/azure2/analytics/Azure_Databricks.svg;" parent="1" vertex="1">
          <mxGeometry x="2330" y="-1658.6000000000001" width="62.8" height="68" as="geometry" />
        </mxCell>
        <mxCell id="mL6CW5X_RLIltcqBg0Fq-58" style="edgeStyle=orthogonalEdgeStyle;rounded=0;orthogonalLoop=1;jettySize=auto;html=1;" parent="1" source="mL6CW5X_RLIltcqBg0Fq-59" target="mL6CW5X_RLIltcqBg0Fq-64" edge="1">
          <mxGeometry relative="1" as="geometry">
            <Array as="points">
              <mxPoint x="2106" y="-1510" />
            </Array>
          </mxGeometry>
        </mxCell>
        <mxCell id="mL6CW5X_RLIltcqBg0Fq-59" value="Databricks Access Connector&#xa;" style="shape=image;verticalLabelPosition=bottom;labelBackgroundColor=default;verticalAlign=top;aspect=fixed;imageAspect=0;image=data:image/png,iVBORw0KGgoAAAANSUhEUgAAAK0AAACtCAYAAADCr/9DAAAAAXNSR0IArs4c6QAAAARnQU1BAACxjwv8YQUAAAAJcEhZcwAADsMAAA7DAcdvqGQAAEgwSURBVHhe7d0JlyXFkSVgD4EQQlAsAoRYih3EIqRGa/f0nJ7umTPzt+Z39TJnpiW1thYgEAgk9r3YEYuAQoq5n0V46lGqzMrMeplkZoUdgpf1Fg9frptdMzf3GMZIW2SRQyRfmF8XWeTQyALaRQ6dLKBd5NDJAtpFDp0sjthuRbf9+c+5/tTanz7Nq27MNUQPnHfedH0hfw9D3nctsi5ZQLsT0VUFVkDNdfJka598nOuj1j4NcH123vmtXXBBa1/6UmtfzKt/f2EVwIucrSyg3a7oJkAF0I8+bO2Pf2ztww/yOl+fBsC0LZBe+OXWLvrKdH05l3+7CsALIztbWUC7HUEDgPL991p749U2vv5qa2+/0dp777YBcE9G2wI00AIlTXvhRa1dfKyNl3+1DV+9urWvXdvaJZdGAwe8C3DPShbQbkc+jnZ9/w+tvfZKG5/9fWvPPxnwvtbaBwFxKMLwhRXeqjtdAeb45QAXYL9+Qxtuu6u1a65v7bKvBtShDgtwdy0LaM8kY7QsgL70fBuffry1F55u7fVXJs0akz985Vg0aK4LLpycr5OftPaHd1p7962iEaP3LrmstZtub0OudsMtrV319UkbL7IrWUC7megWtACHfe6pNv7uN609/khrbwXAqMIVV7YhGrR9/Xj+vircNVoVZwVaoH7pudZefj7gfbuN8/fbzXe24c5vtnZrtO5XLmnt/Hx/kR3LAtrNhIb9hNZ8q41PBLAP/2drgCtycNkVbbj5jtaY/JvyigJ0rurzEy+HQjzV2pOP5XXSzKOw2PFbW7vn/jZ883vTby6MdhYiW2RHsvTYZjJr2fH1E8VlacwgOab9mjbccW9rNCZzf9XX/gJYIS3hLZr3ljtbu/tvWvvGfa1dH0pw3hfDgd9v7c1o6rdfb+3D/P2n3GPRGTuWBbSbCdB+/PEUJXgr1wdxxDogb7wtQLy5tctj8i8QypoBS7xytC69It+5aQL2DXn9UrSqmC6++074rjAZrbzIjmUB7WZCA+KnNCygffTHibNeFqDiscz7RRdPGvbUFS/vAS6AX5vvusRsOW/CZsoT5zUxFk27Y1lAu5kAk1UucViLCf7+Yky8SAEtCpRb8VEaF8gvvnQCuEUG7wmfKZODV0u/i+xUFtBuJkAbZ2yola5oRNrTsiywCld1DruV+FyEQDgMPQDirsFNAhx5kR3LAtqtBKbg0uIB3rqxDLsDsBX4c/ltJdEocAHr2cgC2s0EtgD1/FACDhic0brCYBJlAHE7ItTFAePU0diiCJZ4aV5a+EzaepG/kgW0m0mlGAZUuCiAFR8N8CzdWtL1N8dqMwFq0YGP43D5jWgBsEO/SeDV77cL/kU2ZAHtqhTQZo8eSDleVq4Al4akMUUTLOsCLm66Gei8TytXtCC/EX3wfcAFZM5Y5S4Af7Sx+y6yLVlAuyo0Y3e8CGpw2RXTdVFM+p8CujdPTKtdr75YWV4bID9VlAXYb7/exrden/4d0A5yEl58trXnnmzji89MEwCAfb7ZBFjkM3Le/47Mf5+7wkwLawHkay9P2pFW7RrX3z6vVSwclcYMAL3vyvtjPq9/+xwh9rto0fGP+Z0wl3vECRtqeTgTg9atMj9og+/4d37ShlCHJSdhSzl3QVtaLRcwMddWvWhQqYfMufcvmOjBAIDASCMC2B+iYZn2XEMAPr73Tv4OoD/5qA1+V2EucdyAFDemsaOpB+/7HPj9FtVwRSMPn6QOuK7vnH/BBHpSL/Pfi5Sce6AFVhezDohMOBP94tOt/f6x1p7+3QSqSik8NmVnxREbAAp14FDNQJuWZN/MFfMPuDTnn8c22KWAC4vrfjlgveTSNlx6+QRkUgsMuUeBNnTh/UyCD6OpK0QRgHbwVniM5LWDeJFzDLQF1mg64KJNX3mxjc8EpLKxnn6i/l3aFOguu7wNcgskbfs34H4xoKs4bQSI/hzQc7BoWdr6ZP4NbECKB9OwpTnz6reiELUNJ4C2h0xZ6sQ5MxmA12RQ3qehH7Sy+9RChmsBLjk3QAsYxUUn/llJMK+80ManfhvA5no2wD3x0sQr5RNYdr3ya5U7MBy7bIqrAttXLm4D8NKYtCgg0b7KxHMty0o3vOLqaYsNsBbYcgmfAf+xaFyTIWUVkL1P65tI6kV7c/CijQd1XgXqBoDPbfAe/Xza0q4Z/LdjhjlaPPnQgVGiNqDSrJwjYa3Lr5rAevXXpxTEr+bv2h4zc0xaWoaWMkILxjdSXsoYnvl9HLFoWqC84ebWvvWDNkhLlBjeNTNRl5pAygmteOPVXCfaqF4oivJwZsvHJgpwq8/qZTJ0mnGOytEE7So4xEE5TXYS2Cpz4uUpBFXaLEADVtlYMrdsPrzymmjDy9pAE9bKFTMejtm1W48k4KW0YjR2e+jnU5m457U3BLTfD2jvT9kBcS0knEb8HiVwpZyRlj2RifTay22Qc/teaIJbmggB73jNdW247sbWjt9W9SuqgXefg7Th6IG2g7WbbcB6I2B47slp24ykbkCJ0zNcHEcLWO0okCNLw8rgAohVDbmZAO+r0dY/+dc2vvL8xE2Vcd/3zgzaDUl9a6UtIH0zwDe57HYQwwXkaPARcGnZa4+34ebbc49MLlahKEaswEZOxLkhRw+0wBotNsYzH+zRsnMWCAKIkcZFBXj2AUFtNJTrCgQcJ+ZcuGm7vBFoxXWB9iWgDa/dMWgjaMens1UQUUATqu6ZZF45aIYJBz52rA3XRuPemLrflInWwVv8+dzQuEcDtNL8mO0/0qzvtrHzzldfbIOVq7fCYbXStpiLA1gOFipAu14Zjmi3LJ4IYDvRWHjsa7OmBS7O2G5A24fAhKJ1WQha9+XnUm40L7ogNlwOX2hFnLmqv208tvtITBee4yyiNJaf0YYjKocXtFXtXDxvzgsN5VwCztVrDtOYeWuogMWBkVNDowakAw7bIwTdi9+NFGhp2n85O9CeKn0ho7b6xEIALe3rkJATuR9rElpQsd+5LWMcx7Ie4soSzyu6Ec17BLXv4QStKgNrD/bTqgHr+Hx4IPAYXECOxineevU1beTVX3/zFBHwXlEBXDCg2u3ArkvTniq9fT1M1zdEnngxbZycyfb2m5PWlWB+aSyFCTlv7Rm+dt2keYubn0X7DqgcPtCqLrDSojQRTQewXt8IeOUNoAvRoANNyozy6EUFaFuAFcLivJytrIvTbiU9V+HDtItTiZujPKIW7l3tzecVZfjqBN7jt7ShnLU1t/eAyOEA7armAQzalbZ5IZq1IgL52woXsOKtl14xhYfsmPXKdAIQZwWI1uVpd9D+eIUemCQF2h6nPUvQEu0XEdF+AEUZgFauhMki5ozvupcTb65Pm9PuQWRE250hBtSAWzuH19T+z0kOB2iBkecf3lrxTBdtI9zEYflTBnJePrUa5dihMpG03lfD+SofdjaT6zSVQItD/+ifo2njMHXQitPe+531gZbUMOXyaifve+kLcV33zwQeLFKwPigDPjvz3UEfsDj6RYRE5ARtOMSyXtD2omhFfzNt9Vb+1wFTl9m+BYDqt7mEgorTRbO++WrM4jRA5ZRINKnVrHz/WLQLx4pJLKDGIRGArwWCWcNsdq+zkc5p/+PfwqVfaGOnB9/87qRp3XtdoF2V4roszvttfPfdNlhdc6BILE6t0ome+A5nTT8EtKPJ9LXrp+XlnrzTOf1W8pmxnMeFnDqW+xgnXi9oyzlKZxm8fgEe0TihGFqgEklyde13qvTFARoFON+MFmF+i8dlcFABtaYxaBOnEV4XU+iVJ33JZW2osM8eAHVVrGpZiv3VTyaacPJkG00Yp8rcfvdEVfZ6MCvZJv0kWkLrvvLc5JA6cyx8tyInLBCwpn+qr0ws/FeeBUdus7h0jWfKN0GMpb+NDfGbLwb0Ii/GVH9XW/e4zyPrBW33dAHN7BeGslSqIRqm88x8Mx33klwCvKuiOn4j3ioKEM5aq1l4qwyodNzgVBcdj7s5hVCsVSKKQQDk4q57DBZiIDlHEm+0mXYT873upjrec8pZ2ON66C9AAqxaAUyfOzvMJHeZ5HyAaMoBTQJeXPeWO0rzVurl6WhMOYApE+XQNtEK/c+6EP2Mavi9VcR+cuQ+9PvZgdZPe2DfMuQ7M+cUgtJQjTSw7gBIOse6vkZekZnOuwU2g0toDaCXjCLEQ3vpeI6GezBnF13SBlpCeIej5VXndXMHJPsBWAKkRRFmYNBM3YvXxr2iJaeKcdgYi2h//Q64Ui1DWypRiAJJH5YFojg4qHi/Y0fVVx+qO+mpkn5DYxvPgHZEx4wnoWEtZlBAGceKD+PMYsQmR43F3rR996D1M6ZfQ3CoV56fOCft6N+0JXNiIFeTmM3Qi4+FW8VB6iZdQyH7w8mxqfAVIJgAHDDl1EpWtAQni0fcHQxZWAZiH8zSXwltBChiwuqoTwCVBdHOvdaypxN1ACzAzTiUtTqhPzM2+K4dEyYbvm8lrfsC+lRf6kaKg2Z9NYAv/2EGLI0+zv1cZ0GkrRKKKJ6MZzm/LIzyAHqPJu3uQQuMtAyNGM95/N0j06x+J0ATV6Q9zVy0gOiomqn5TIMzswfmnbaklVQj2noUxgJYwP80nV8pg7NmteaOl1lv1yk6bL+02WZSkzd9Ud2YS132U9ufTtSl+wUffTRloAEtq4X3hofbJlT11L/o1Rwe04qiBAHr8NKzAb+IxCfT4dAmYk+LLK2e8aGcjAGlEmdvuOWu1m79xlRmadxT6N8aZPegBT6AFSt86vHWnny0jTrCYJmxZjCwrZqc2fSbucW/rJPjucCnFhwbn+sQiSvM2NXRAD18xekq7jrP4s8TGIdB+oSKqa9wmL4FRtpXyFCOMRoQ9TripBYiDESAXu/XGGX8jIPxLBrGguRrRQkz3kKOqKDvs3g33NqG2+KESkZiCY3vmmX3oKVlbQJ8/OHWnoiWZUrMROC6JTPNMZdMDg+aAGJP5bMfSwYTbcq0ohmzdqq9WAF9hWiuv6UNNOzXUmat7ATcFaYB1s9Rux42AVx9THEAItMv9dFW9mjf8h+A0PdYRF1bjvPMfW+8vQ3H4/DSpn3Tpe+bCCI6zwUHcpXxXgrrxtumkF9Po1yzJdz9dhugtQ7et6oA1DXhMzffOZ2QjdtI5gA2mhGHsjcK39MhQKoMGwKZMe/JXvI7jU6DB5GBa9Loy0MfzPACrA5YALsj6ZSFdULbOMQUTHHvKBUHkZQljOacNW9pVVlwt9w5pXB+Pb4HGlfj6MqYupSlbGMo9FahsQAf/eOY+U3df31jtnPQUsw91AOwLz43NTYacbz5jnCagFYDzVIdA2j4kAu/MVO9D6TKcWm4FLvrbmqD5xHIEzXDRRfKJOW7tGs1fH2NX6usGqw1a5a1SAeOfjQmlIx+j/asPW+oGf5K0wIji/mNb7UBcNEzYDVmgG8sWUTjaSyVqfnGkuX8KMAH7IC2MtG637GmftkZaDtHkrzBq0QP8KN40WN/AIZMqr7i8plKzpUuBy2dFa5UW6Y1WLhEbLM07B2ZAOKH0dK+p8EHXbOWI+bqwJ3behBFvfS58enaMn08xNQPb7+BL5aGlLsx3PXtyQE2nkC62iZ/A69ygNfftLU4sVAZLpzflQ8C2D5fU5+k9jsUM5GWFZZSOcKsZzbKqhrwnjMtDWoA2hCzM3znv7Th+//Qhm//sA1WkRD+L80m5zAIsNIwkrdpKx51XzU68ALAGYsNTZi3gJjCoGmPxYnqMfStBChZRRbWKxCjGZUnEkcN/9VPa5KdIaNr2kq6DnC90pZmFbB67R2wlfhcZ+A74rR4bN9B0GflQRV9AJScygyKlERb0ccnHm7jb3P9/tEposICoU20z4EWYDVes5WgOVGBiuow/dsYC1EDZ50BOcpBk1d0IU7f+7l6DHtNsnN1lpuP4nYGjYZRF0A1u041IZuJ72iYUBfugwboLGD1/nbK2G/pE7aiIHE4eMq2wjjo49EHWvv1L1p76GetPfzLAPiRaekZhUKlDBrvfY0Dt04Z098bNTOWVruMxxcooG1AxJgZf78BYONXe96Cjx6VWGPTdw7aDrg0bvSqNigDjaJy25IZABoF/ALUFiSqcQdwYAuwGQTmH2ezavdsQPm7aNXHf92a54zRsJ4zBrDes9jyjFNrXiiA12qf9m67j/ZH/tLbFEXA++copViS0eSsibaN+moTDJicwOrQksIJ6kGR7RxmW8nOSpsBW7wVd7HiocIViM5lUGup7wzA06hwwFpidCwRh06wG0cG/oMEXHUxqXps8/FQgId+Hs2aC0iF+4w3LoinxzMfcH7t+s0D+W408CP/2ZpHlJ6IH4AyHBTOu6KAhg1nao6/GgvtBtwzCYCjitqtff5N68IJmiEbzL3WJDufAhqWigxyAHAYs0hFrbbQQgC8lSk0czMjR2vj+GBpplkrAW6VkQ4ok5rvfh4Adk/AYtoE4y2DWtL8/WNtfPTBgPFX03FKJp3vcR5vuLWC6YPMKeY1nH9EEX77UBtRh7xWEN4SteQiE/wAtNGDUOphKD36gfoAn+V4VhAAtxK/AW6rYs6UAHhaF7fls1RuiJDl+kC7s5CX2dLVPsNS3mGcEdubaWAANmM5ZMVxTzMnerqbFTTax2X3rI7C/zKY1Yna2GO8+xlJMAgmXcBaGWsvPtsGWjOTarTqA8DAzMpcfU0bbOOuMN0NUyJPBeDzWTTNoBEoAeBnkg6S2U1qvy+g5H76sq59bqN6icuaeFYo0R1KQ/30ucUBi0WSmThkp9OUytEO3P35p9tI8ZiU+k+ozCS2MtodujVp250vLhRoc6lwwDeKIrgMjFnrO7Xi5a98x6M0NYzZlzYn7VC4zGqa5BjmFYh1Vr8At5tQ93E/5fVrL4TGU0daIxNoNJFsoXlmXqK0/Mw6mEi0RwajVopuuaMNFkXs8pVr4TNr9SIhgKu6xd1TbizIoJ9mKjXif9Fw1aIa1LzuVRv1I22qjfqYZgTSF+Qr58rfU+5I6sGkx3oUaHsUgRgTY+ky8VhES/EZx7H6KePJgqBJYu7HY32kPp6vbeublLtbxq0KpBOAS1iDpqWBdIYjKvU+s6JxGmGQAJNWrg15M2DrN2m4znDpCB2nnJim6RlewGsgc8/iX+695kEFWPd2ftabr7VRthr+qp7W52lcn1vyFL+88dZp5a9W7qJJxDUNrtU7iScA62Ii401vHMqsjFCpIeCvVD9tLw4f4NbEnNvoWidwAVb/iiVbNpdrIPJRR0Xlkn9gMlnOtWQ+pxjWjl4ApITG/N64GEeTF42rcvJbK6P6yr+1+brjU/8IZ1qYWPMkHHaf5RXtoZLMSjzn8bFwPY0RMjGItmz3rHgCvHgvAKACBvCii6c9TOiEamQQK3lD2aEXtXZteVjiDDMj46tWZ9YI3AJs7qdeknhQASl86gpUQjjqEdNfmsdAoAH9XAHL0kVhVuqjzK6N9AmnJma4zvtSNpPss+orQfmY0huiraVp4scmwNrMKcBmwsgLKJBlQoafT1Qn/+aPmCyxEJUPq58rSSmA7XFznwNsFE7tiABcvzPJUQP8F+jlh9x+95Qswwr1zLA1y+5BW7wvDTEAtObjv57M/ntpDAHEWdOUlFlKw8x2ZkpsVm6sVRSz2UAbYBsEraLoFKLjmF6cEWBkfFkaVDYPVYfudHDVXX2Ka74XTg5U6XzOlkFBd3zHAoiOt9qnnu4valLaJ+3q9z71/r1LtZPFMWFNVCYY5XCZJPrDMxaUZ6Jfm/5gTgu4abcgv3463T3OJO5Nu6IlqADAOkQaJah85dzf57SoZVuAle8BsP3+qJDJA/TvpI9+98jkOIukVJgyY2limxjAHUU13H5Pa3fkMrEPXD6tn2k0cBkAwDUTAVej5sWHweDnqwLYpVmYWKEQHXPDzdP5BGYj0AJR7bh9qdX5sfgSLajjaOQAVqriKInD8Uarx/+cSdS3rtzHxDFBTrw81dfEo3VoRIOgniIj6shMdiDRuEDUJ+J2xT21Q/nRTKOEbJy5b4NRH3JJ+iHgrW3fohDMMzCbPN0h3S54Aa1bN6Y7NKC23+hTY6M8k9/SuwnpnoDWQ5n6tQvL5/zcB/6jtYd+GqWSMonvACvn8yrlxBI5ycerRSP9uAeye9CSDlyNEsbRMICjrXINAcXGiX8Gm8mpzrm2jTUw107bbmjM4sHRfkwPENFKygFi3NdnzKbTYu77fjonlAGQ/PZMnvdqPTfCMzHX5THHXKo388dxMpBoSKcCxesCJoNjEHbLN7vmA95M9IpM0Hi0Lu1HE6qDdEGm2sD3PXBAAQT9rNwztZdoa1cCwm6//XX6MfekQZRlLCTF4OTXRMsWTcsYna6NNKq6/vT/tPaL/zfVn6KhWf1WXV36rRy3KKa10Zu/lrMDLfHrMoMBlRnMKbOpThzTjgaaLNq2Mr9kDRkIgGV+aBZBeSZSA2lbnc0ZY7ID1jJnOt6gqioP/f6/nXJtaSHmZ6vO6YBNeRubJUUsDILJwHz6TkxxmUgg6UcoAXCnAjTTOsS99FWoVcWqq06pizq5WC6fm0AsCc5r8hQo0m/qtJ2JipYYj7S3/A2rd/oWOGlUZyB41YeApszN2gi0J9JvP/nX1n7573kjbdBXeKsIgYltXEwGfQWweyhnD9ouioEdAIm2HO1oeORXoQ0xTU6A8RyCv/uneN5pKED0xp2a1K0c4FUOrThrpHpQHDCH7A/3fXcaxHJYTjN4VUZ+r4yaTH+cTKOzavvqG7NZfDITx6Y8myxvisdrMvRBVL9Tnax1iPq5ekSBdUEbJNqwLgDCjKf9A83H5MqAs40FnZJMj29uJfqQVsddo0Cq7Gjxoh76rmhAQIZ6nEkrboD2X1r7VSiC5Bi7U5zvALgsAUtE9ki7rsruQl6nk6rsXGHcS6fzLDkgJN72cFsIun1DTMvpAEuU4wIWWpRJjFPnGQT1aCOagUlSxirvWhWALS0WTYpnC+s4m8CrOhlMptDgOaxNx+PJNk4W5cgAlBOSduzFIFQb86oP3McEiWNZj3KqC29O2/rkCyDq9Ec8uwAyT6gzSa97xmOIRaszbWltlqS0IsBuo40mPwtQ8erQKXUEfv3ltQ7a26O+Oo3kTnsl6XCy2g5/a1hfLDgVsF185gJc/MhAlSYErpgjg3eqM2SAy+yGx+FuuOLT0TCWT2VhCWVxIAS6dTQP997vtOGb0do0Bg3blxy7dq067pXM5QOfZV+g9FwFGuzu0Kh77m9NYr02B2RjOTbqtTJktKk2M/teAXyj35Wd74qyoAEsXMWUMym911csd9zGU7+f+8233C9ZHz3ooiPDpYoePPzLSbvpUF7qf/1f0yDgP6udf7ZSnDqmtnb7BrDCVzQsGkCzMr8Z8MHA0/S8ZbFRryIC3l9nfc5GAE8yEWfRAXN4t/ahMSILrANNDGySW2qBIqA1iU1wZlpb1jnhVunBg+hBJph9gH3zogm3B6GtzeSAjNRZSGlYgA0dkJDy4M/b+B//1sYHfhpNG+0q5ooD3ho++MN/bO3v/ntr3/7htDef1ikAHKBuUJeY/0EEwcpbtO5w7/0V/6yjO6u++R7Ashzh6KMEHk4vpw7AgHy/1d8+yuEHrcHpKz6hBbXqJC5puZi2wsdEBlACFIAjw1xWaCZaaTvccD+lUwY8l3bt+QysAdEmZ9I+GZA+8Ugsmtzd30yOao+GaPOaDehBkkMO2gyMsTFIVrgyYINka7xWzBMtOS9OCMfB6pJL4LzCO3voaK1D1E0dK8qSv1EACxEvPDvl8Ua7loaVgI6CvfpSG/vSc4F2LucIyhHQtLNw7jgYxy6bDkMTjxQDNujMJSAzpzTVxsAyowdUaEr16ytpLIg0To7lbx6cYq8eQB0NO7zxWhvQoA8+aKNVsFWH7AjKIQdtgEpT8vgF4iV7iAR883tTHFF4zPaR115tYzTS+NDPSjtV3qdzZR3/A7wHTXokxCmULz47bZq09+zXv2jjk4+18UQcTDFroIZNzi+g1uU9gJ+KOopy+DXtBmjjwQrp3PWtOFrfn17LcQk1sEonuM6c2vryeLigf1eWUxw42qlCRp+X5gWy3LsvNkhEeuetaRm7Nk5Gu1qGpWn7kjarYpUR5Tn//DaWMzlP4iMuR4MeGKiK6Vq3z0Bee3w6QwFwXXWK39em74jh0rQdwPhh5fbm/b6ku99iz1wtX2cCWcoFzqrfL6dNkkJ3IiQcMosgYsy1OnbzFMM+T86ugo6wel2Ro8NpjRqHRX4rT/vqa9sArPd8pzXLvgL1IgccMZyWFuPE0GCAy5k58fKU80Dz7gdtoNnt5pCY3VMjATZ0oMBqyZlm1S6TDlAthmgT4EoeEgWxqlaUYAHt4RTgFejmiF1zfYB7Zxvuui9XNK5cT7xXso6tLhJVAANoXc8EMD3XVbJJOWt7BASApV0rzzbaVfa/pBZb0QHXpOI8sh7CdfahaYe4rURr+QhfvbqWZ4H63IDrJEcPtKtCQ+G7TKgzxu65vw0/+Ic2/PAf2/DtH7TxyqvbGA4pxjmGKoy//FGufw94HqnsqNKCewVa/BUdsD+Lk/Wz/9vGX/2ksuNGe9Ro0DiVw9/9jzb87T+1Ic7lYCmWc4nPWuFTzjmkYbscftAaMI4JrURzcrDkGeCBlUQex0a8U4KNAZd6aCn51rsm+sB5k/HExEoKsfwLOM43cNn4J9LAYRN+2o2zpo5AysGa8yLG38uL+HVeH6sIQWWd+Q7HStqfEygd6Ld61m+lSWYSqgOKA/RlET5tw1yvAvL8/6MqRwO0gFmB96cnjvpwHCz5vGKbBdxoTFJRhoC3nvcQfnv7vdPjk3BFGUu4sDAYioBTOq+gIg0pF+eU0N757na0m+8IQzmGH2BtI7I/CxXhBKonWoDTqpvsq+NxtNTrjnun5CCJ1XJoJYeLRZugJpd2Abpy3SO0aGBZXDB7hHG7vtTELl3zSVQ5ERMrmE8LBBB11ikPmHmb3N2zE/cSKrLXyrq78JCAO55qRQyY/xzt1bWjnbyWSPsyqQchO44SfaCJw4U9RGMACpPAYoRyaj/UJ9O2dvfcAIdrk3b0fhCRkLAjvBaeWqE2loAGZxloVxxbeM7u3mjW4SbnKOTfeDkwuwX+y5oAqr1eJlasQj34zr1oYmVIyDb58Pp19DHR7tXURFlprJZtSJaZe+7xPsnhBi0RLgIsg8fM8sDxUZlmOpqjAzQxp7VfzaFqqAAwGFgdfuFFbUidKgvMLlt15QARmkwZsscAOfcahJ8MUi/nVOl9wKFzig5tCqgmEweLlhR+M+BMP66Kstj+wunyvj6qqED6DvBtD5JfIC+YowZA2hzqU2cu6Ftl0dZi08pfQLtN2W/Quh9+J1QlScY933q9jepAM1netJO0cz+DieN69Vuvkr5l49N4BgHHDY0YgIbpBrJ6IMaseU+enEyxz13aV6tTueq0wGh426utZj39xKT9aVia1eDT6HJnb4tWDTWhWYfQk1p+7sntJljtYE69PbESRUF5WBMT04SICq4nrVeeca7a6xUqYTKq37pkAe26QZuyaaICbZwvZhjvBIA5HFQ0wXccu0TjMve0pXqpB+BVckrAQkv5nRRA21OAugYk3z2Z3ygLHckgDs5eNRm0F8DcF8jVI1p1pBFpR4D3uXJjxge81RMTvdpJUDm9NOts0lPeGOsw2JEM+NIOu5a2fKs+l4XW4OGecYFOKAdgK582Zayrf8kC2r0ALU0bsPSIAS3FibF1hseNe+KOtBbAxeQPs8as99WZADjwAk9t8wnI1NuCBDDgxMo2AXju0aaOfZ8crZSrDoBmcKNZB5rVfQD/0rTbyStAVlGLAK7qN3HpVKJ4s3Jrp6620K7AivZ4z31Sn1o4kWYpduvVdvO+r8291glYsoB2D0FLw9G4wGcZl/Zh6mX0ux9nBnBpSebb70QLaE/g5fEUaHMZCJoRZZCPW2cBGJx5AuC6yqARa1t67k/LazPAaX/6YbB5MDzTg/7KwepAq42F6QeDrb+AO8Cscxg4WZaWKy84ZQm3ASNNaolaP9oxcFx0IcAph23NlGBVDhhoh0O93UbVAYgWoo0e/OkUrPfeD//bBA4DyqwDc4BUSSg0oMkEyIAjeoBjAoGVJgNCsxoI7SlKEFDRrgXOcObOn998rQ3Ab0L4LnChFu7bt/XUEUPRhJw8nLWXrf5+py6pU23AdGxRPVExGpeT6bsVGXDCTjgr2mMisSCozLr56+lE+7X1gGy3OTqatnJOM+BemVqTwyDzpm2EZIZpTFqCNnV79cRDAZJ5z+AMQOR92kUdTS7fp02A0TGeAV4llue9cta0j/iexQEgA351qBNXZr5Jc9OIvk874780a6cBnLX020CLB/zTg6tDI26aTyBEKUwoIOkHYpigteiR+mr3VmG43coB07R7PEU/D8nAmTiAYQDt6wck5hhd8DA3Cwrf+NYEKOl9NNpbbwY40XSPPdTqKZQ0tolnQUE0ABBoPRoUKG09l8sgp6GyrqJ5bgtXRUuq/Fx94tDkJiotzAE0QVAJUYA6Aj/3E2EIgAdaDbhtYBRZuEeugZyJKdegAKtNJmt/4rjQF27d84PXbDwPmhyNkFcF8HHaaAELAtGW8gpKu0YjDnUWVrSg6ACO6cA1mqKbV6LO0biOnp8eghLwCG05aKSAYBLkezRK7XwF4GhwD5fuQAY0E0E7LQ5056g7WeWsxRI4wwtvpWFtxpQwk/qXFQBMALWEC6x4sInV+a/FEvvhgNWSsCOkKjqR8jmK2ui1rMSa+viAadqjAdquceyTcl9aBxh9VqZ7mEJX/RAOA8u0V3yWs4U+HKsFhno+AG0otJQJUCtOnDyDBniWUg2S8l0mBADjqkB8LFpVeaiEe7o/+sE541yhAXWe61Nt1D/RjnVfDpUQmD4S+cCFN6ILqVNvZzh08WkACuAH5fk30KpP7YFLnfDcBbTblP0GLS02B+HrrK7ZVA60ZAayzK3TyHFEg0nQBod2pB5DnJraro0+AB0AKo/mThsGmlsYzUTAf9Ub6Mv5yd9eK76b39W5A7kKrBloQDKZUk7FWnMNACthRp6s0xLDdevsXfkPKEaFsOK40a7qQsoKRPuLLnDWnLptezw6E21d8dy0qQ6FsyztxBdA1851yALaNYJ2o4zckzYtZ4Tkbx0dkNUhb3ipQedo4a9AVWY0rwYXOAT3aSn1pCUNDEACvd9WObkcCBIzPy3lzoBVTjlAubzXwWoXQoBlX1ezMsbp8r7voBXSJYXA6vSXOFkoRjlZqY96Fa3I/UVH0AllWMYVKVGWvo0VGBzuIaJAMzsCFYendRfQblP2XdNGDA7N2U2+hQEcVDAeP+WN15W/U7dBHZl5ACY4oB0PAKhuMe91dhbqoO48dFq2ygpoDeBnynGvfKdrRNpeWC2muzZRGmxLyQbfxABOqYcyuTyS3r9FF0yWyuSa7yc+W+G8AJaGddGqgG9iuD9rog1CYShGytoArcmxDllAu2bQKqc0Hj6XcgO04ojeh8kKCc3aUsczyZ4LYdBxVAPiu137+i3HCm1gbnv51S5gihOkHGUCLipRYTPlzyDDXyWWC2FxsmysRE0s14omHL+1cg5EMurxqu4DZO5RS9L5PvoA+PiqcsRvOVzaU3Qk9bwgTibr4nfojQyvAu1c3hEF7eFeXDhVKgwUIHJ83n17OrwCiByazJz2Y4MMOk0azVRH4ruuzABIVQRaUto13xVN6OX4fbz1gTPkHiSmHCeeTg7MwCnfvTlvAAVcl14x3UdyC40oBGZi0Ih+Y2J0YGwcKB1wqHPuXby81xnfjQKo37iH7LF8bxRxuPf+CvhXppj7mojrEPengJbFhXT6uqVrRR2YQSszWWY+r50ndmDP3NRrPaGHhqNJOy8FJuU4VwtNUE7K21hUcC/tRDtirsthE4LSXtoYXbksAP26ZddbJxpgI6LFjooupD7uQ+Nz+oCVRkUpxIgrhTFlBjClOQGRk6aszn319cxrq0yaz0Q84pp2Ta36vCWDZwBNDq86ELhoOCbzhjg8NgM6QpNZtp0FiHFDWVQefvHoA/UE8UquBhbAUxbaEYBIAfS8h8odwEWVZ6sOB4gj5Dc0sTKB2vH30UbDnfkurdS3zNCw7g30ACtuC6DzbobR4gYejB5oF1AAvJitskx8WrvSGDMZaeANcOb754AcftAWWHPRequOEp4JxBnUeo6C5dA7vlkbBNtd8yODAA4NEJJCY6QS5hoF/ZlmgCrnLd8BDBrbJABcR/EzxVbAmP2LL53OkGVJLLn6zFZviwQWHWhCz+kq2pEygRtHFQlw34C2ogwArA00sSf6WFn7ZsrxKo67mmgjlNcn6jkCWHL46YH74VyAynHBB5naaL8BFUAJaMt+XRAOStNVeCv1ADT8z/eAE5jkL6TelXZI4+KmQMssMrtzOWUWU07RB6EmOQaekWtC1AHGMaFyFbo2REFoZM4ZsFZEgLMmO+2dMJMAEShnjV7hMBOA81bRhZk3p5w6vzamegBy9S16MDtiPd3xiNKDww3a0jARYHAfq0yAABDey31rhwGHxKuOBaDc30P3JKSUE8VkA7PwUTfzzHP+HjrXFViqcvLqWQ3FmwNcAImpLkcLUF19cQDI/E6EQTnKBbLafhMKoK4ezcQqmEj53SA5BvWgoTlXV0WL46iWoYHnk4+mfFsxYAnmmQD16FL5usCtDHUysZY47TZlvzUtwQ2jIUfLpAXavHJuaM0P4iSJArgfYBh8ThLw0pBCZAHF4OBlIDPYPan7nbebFMEqSxQhA1dbtQ2S3wMxDU1TA5aL5nYf77unKAOwWhhg/i0OFP14ZSqPxgdyfcPJ6llhFgqUJX5swgX4I82vbSlrsMIGRCYXysFRs1jht36nnevq48URW6P0QdFhGdx6Egx+K2aKIliXd3aB4zH9bSIBoegBATxeOE56PGDh6Nx9/7S7wKDQVDxzmpuz9tiD0xYa5p1Gdh8D6ns1GWaTXBGKaE9m+0QmrqQYjl6vR4A20r4B7IgKcLI4iavPk0U/tI+W//CDadlXVtjjqYfDlE1OCoEmRx1o+wrZZRKYTOsC7AGUo6Fp3RPvFL6i2XDccnhikoWzvIcquCWQ9YC8AacRaUaeOF54LCAOAKt2+W4t19bqVDQNkGZS1Gfedw9tq/vn1Xuyw4TBOHE49sxda2WMWUdBLox2p6EkxYgwOJBDhMD91QXw9aH7mWQB7FBJMuG/NKxVsdxjYBXEfKNd6wk9nUevk8+SA6Zpj8bignuiCDSbyULLvvHqlPFFQzH1BpJWtd2aOb76ujZYjaLVcECakgAioJtszDqtCiTKef+9KNF0l9Utv6OhDZwDNWg4QAl3LV48P72ytCqzrpvdn0YUchOvRQH0hfdRE7OqJlsmSaUw5p44r/NopTO+81Y0dNpJCwO439svhhqoC26OGihnnUrhgC0u7A1o08h6FoATWoCWKeRd7wa0pcHyezPdYJIe6+xAI/17pZ3y3bcDmoB2Am40HF7KGXLuAe5pSTWDvjHg/Sk3tAZN3FfWgHXjSjm5RmXRPr5rwAq0sR60jXtU9CGXEJzupZkcQeoBgGK1nCuOk+03PqPthazU3WRxHyE3kw9wJfykbSOzT7OyVjSd+hfwr5ycQsBZ7ZPKv8gkMGn1nfqqp0y0nYi+MHF/HNA+8JP0X+ot1Ae0dhXzB9Rtn2TvQSt9rjTtDkDbq6TTaRaaL+ZxBARKBOc0cOWdnyJ+20FOw0VjTbtbo/WElgACsIoLRltF69VW7BtiWsVggRf4aCptATz3Z6YBShkO4AAqGxtpRuCjfbWpchFSvvcBmkbtOQHARUPTkupe2in1dR+gAtKXn5ucLVEGuylMnIBtvDz1Ug4KAKgWTpRvAgLiX0nKNbEC2LE0/httUM+aoAE8q9A18mZauY8DTatuHjP6q4DWfVdBqw77SA/Wx2lXgYbTGVwXU+k9S6Db4bS+W1ozg961Vszj+FQ4IUckIKzBF//szsqq+LcBASKa0+BGK9UTC6PRhoDDTtwBkDlZQOE999TxFRWYJ5SyeO/yCgxU3TcDFBANJkZx15RhgnTtKmnGbgegtApWK1n3TXu8AEY5vd5ApZ1+T6Ny2NLO4r8vPTfFiXUrGnNjwBFHsQ73uCYTzeRCSdT3dH1pPEwgVsHysByFAHgwWWn2Pl6rv1392+csjvqZUJapKwEoY+r3nD9jSeuqQ4E2v6kiTlOfNcrZg1bjAM1sdBiGxlVmUjRsLYlGO+mfiy/dGrTVSSlHB8lyWolpVgI1JyCDONBmTDrwMIn+fWpZ/g243aNnFl2AxDS6f3476GyVc0/aNFfFPF0cKnUyGAbJd00Er+4bwNQav6vOSEi5Qmjax8HC9ThYN9wyPXrf92pwU6+yBLmHieOQPI6aqARgoTNCdOqIr7JMtwaoFhvk3HYLo13dIpxOiuKknHffaYNQoP4zMYyHycWRE+HwveqvlNVNvMnkM5MGJ8ep41AOqJ4TJI2TPvEbY8+q6Cvl9LL2UM6OHvhpbyCNYxACtjJHtKI9+8wqjSeG+Pf/M/QAcKMlVulBadYMZDTryAHxtBYc6sTLkxl22mC0Rj2V25Lofd+btBhe183ymaQPYp8QPPvUcywnK/W27wr4QhkKZOWs5XIPNEIbAEWbq674Z9qM65pcaedYGjZgxln9Fg2iifBvg1lOVuowRwQKAOmj8XVtRFvSjyaXdqaM2jIuBIYOWHI2KbYC6qp0S6CdqJrQn3uqv3L0I43NKeScdk5PjCft/zqfIHUs5zblpK6DDZn8AtxavSiQfikH/VE+hbGdeu5Cdg9aPwMETo/OMAtjOsrxAWDaCkiIhgDtd/9+AhvT0hsEsGiAQRNwZ350dLzl2mSo85l1naSDxTWvvyUdFDD15crtdI76ugBH3YA396wtOjzzN3N/EwZd0OHMOK3GpAOPsBJ+Wto5ot74tu8rw6sJDKDaq74A2AfPfWOFxrStwlc4Ii3mnsqhgWWFlYMVOuNpktoI+H3CdB66HenKhFb1sDymvbb5pK7azwHErVN+OYf6VhIO6VbAeBpbXN4EMBaVOJ869IUVbTShKiqSCSZ05znGJqvP9wC4uwctwGqIzmd6Hnto2qhHi6inwTPjvhQzZxZHYwx3f6sckvI2u6PANAsP0czPPzM9cVGH6VgNxknNYg6I1L6iBukQJlKH+c5OO0bnm1AmS9pQW3IAT0yVI8SE4nI6XaTCvVmIG25tA62Lk1pVc19toHXxR10JpDR2r1uBZ9KulSMLPPZ1lWb9cHoqjTJNCFSAw9b5qpW2HhXYaRvLbP/l3kXbtE9yOsXQ2yjWK+HdxMSdMxnH4vz5PsBmMo52AKuDyeMC3Oq/tFsfarfxFh2xnd4iTVGifLdP8jXK7kFLO5i1ogNS+h59cNKwOteMNQjd8TDwZrQZaFZqCODUjE7n1PJrBlOH4l34pMHnMdPQBtMMBlhaep2i+alLRSbUwXLri/hf2qZ+gKst14dPyrLK34PwlQExUNpyKq8uupOB3lhoiMUwuUUFtBV94vwFCKO+6gdyyDegaU32dQuQsWDaNm+ILCujjbRmJop8jOm0ydQ571fyedGVS9pI46MD+l/7/I4GZllNAOE6E6zOapBFF8exxp+CWq/sHrRmGcchfKlOtqZlaQca1XIkU2FAaIvKisrgci6AkQYAEr93fGXXbuF0IxDooNKuATneBTSfCROtWcrUm0SzRmK+8VRhsgxMPQWRZaBlmNFo3lrjp5nKMdKu7nzke8XN4zQChX559YXpOCaTWszzgrTBVnODynqEXxaPrtBZBn4vYp7aWFp3dq5eShu1cw6HCdOJiHgGRU3kjEPFgDl/lQ+RelbkY7Yg+iSOWvkvrIfJaAxDjSpS4hAToUkafM2yC9Dm67SIAbAW73GXKgyYAWpFCPraPW3UeQ0+5nI3WtqA1rOycjFX3jP44ayjjgJYGUu4YZUTMO+E0+1UDGo5ShkMnU8rFe9MPTOoxT19JvrAcog7czzwzs5f1S9l1FYbpvW1aWtOAZ8Z1Re0KKADhMmYyVmZZgBRlGMP24gymJzqok2crLmdRVfUkwNmjL5ySZRPtCUrB7Q4NtrTIwOd2r0Tns6fqQ2cwUFAX1EVJ/gUcFNGpzdratfOQavhTIEBfeindaxPBe8D1Cn/M6Dl8Rocg3SquJ3ZHLPisZ/twZ+1QYSABgYCCc8B/kjDSgApzXOacvZKNjRStC7wuThqae+Gk1lefiZRtH/lEAAgK5N6jpwf/TGbzTpRMUAcxXgLqPMqVszxGFNbERE043R9tVeijYCLZ4t7sy7qa+mb1gXITKJ6jBVaxg+hUEzKVVEO4LIkgCs0KcwZelEbNz3zDL8F4t3w8k1kZ6D1VQ1ylLtZ9dDPJ47kvR/+U/GZMgfdXG5WyeLDmekP/6K1X6cMHjVawAT9bcrRUbQPsK5xhm5bDAZHU7to34pXps0GR5aWtlfgP/2RSVXADXWpZVbmn1Z+750p2QalyKCPd0wP3ytPvS/fal/vp8+rjepokuKn/AnA9e840OVUsZho3amA7aIclIMSC2jHRx9I/8ThcxbvPdNGy6JB+O6a4reb1GQL6WEu2gQZB3kDA2TMZmmcLQBLmMDQiToUw29jWsd0iqJq4M1K117Sga3Efd2/R0CAEod1eJ1tNrbRsCraHOCyNKOYNC1j8LqJLG6X79/3vXr8Uzmi6ESPfqBUn3cbgQk16fw1zqAD74oa1GQEtnx3M/FZUaY4aMpQlhXFaODpoJRYJs7dDnTjmWSL2pxG3Dgzaww94GiUaTB7DKzLIJ8JsMTnc4fVGQX+1iZ8Cyc0MaqR62vo7iV1xVdNSLTHPrO/+eFk+vq5BepvYYGGIr6LJtE09d3vTbwQyNGdrUCw75L2qQ8Fon7i4Hb9ejWmxvNMgtqYhADrN85D0x8ffdBGoUt/f26gLZmAW+DCb+ETcFV8u4NRv8l3mccMeB0OdwrQDwJc/yLzwBZ4w0E5iI4ysiuX+bPp8E5XKICLE+I9ISyDXxoLZUp7Pw+tuh3RPmOIq2un1xrPbdRXm2o8M479NzCCerjWCFjiDjuTriU1jOPhPdxP5WjI7YgfldbO9/1WA4n9V9VJldYx/31QJHVBa8pCBIBWrWyPqd2y0bqWll21czaglXcgbFdRgfzGYB5UwBoL3J2vwckWQUD9WL4+NltJB6jfFw4oMyDOJLAD2d9rlJ2VptNTgTqwwmDgO2nvyEO2jMk8AuEZZ1Y+x3Osw4tpaqj35ll6QIf2L0Kj4KxXfb1ikkOdbxDaQNveFj5o9Uw8V2yZg3mQhbXsCwoy8oQfxZTFX71nPM8kxq+iEQE70NvabqKifhsUY32juvMpoALxfuv5VQZOo3nS4pG1MpKGem8rMROFhuJ11lZov8l7tlAfVGW0qZhorE4N0MV/4eiHoR2UC8ABG6A6KOSXP871ozaKnxtT43QmoayEAi3HezUJOOSXXzkdXr1mHr+z1MTStF5TgQBzAFLhHabk/Pmp2P6H4zL1XvubvYPMXpGHV55voxUxHre1bl/rq2buA9jWvH1S5dQ3Dp6oV20rT58YmE4DDmp9OxVAAd5+c8pyMwbirHXY87yEHY1ZE5CSYuarXXPbCGpXq4gZ+xMvT2FA6ahCg/nalK9x+xQx6aBdU5/sPJ/WjUvdRzJD69FG4nQfBIyZlZ4tW58Dmtf0UQFQA2lUK0xm9XNPtUECRzpo+CSmxfcIc2Tmnvw48yK/S2MH3mgHwpoavl5ZqdtBrSOwluJABQK0gHW0fC7fQvK5vAjL1lbyADr8dOjH4Hst4M7tAlhjlO/VgosEIIA3rsqX5Qaw4u1W/eBgjX2yuyRw9wcyxDtcpg5wMzuZmY89gzYflqZEA5D7fI5CWDYUeDar7SwNNajDj5lTMUudWrG9dIaOVX7e23i6dl3r7YBzQkq7AlqUA/MNsKVZA9Y6mTxgMz4At+FbpJtLeeQ9ikgZxoMfQvmgdZaAjaMyJImzunwdie8SZsoRDYWc7OjaZGcrYquigUyBtEQrIU88PAHOrLJpry82WK+u76fhwOtwYY37iPkJ7/Ed3jjBn/CidM5oZnNkpOqJj7qsJim3r64s4D2DZGgpEI4yhUJpSHynUS2dAx66xuxLh5RDQXyfIoomrZVKS82WoeNUjSgcEAI0xYLq1dJ2HDA04OZoWGE/ceqef7Jm2T1oS4um4szJS8+2UfIL8yB7y8yU3d65EOGcCTKXN5pGc1oE3GsLzhXp3lQjs32wF6w6NB2B03754krfGxwR5PvinsxPrSiJJc7g/bwArPs2FkMiVZfZKnxeUn3tSv9RBMbESt3zT02n8IgMAJlxSD+Ws2Qc9K3+pFReC7ilMMpWYy2NZfwWK5dtzO/mcOXwaRQMSwmc4tdi17X8a+k2Y9Sp5Bpl96AlgMtUCJXE3FRycfcgva+xBdIIPqQBtTR6SToqMxcQayfDpdOYf5iZzSmoswbSycoVQsmHI7MjYmEbi8yoSjqJ1qWNK2a8/s45owBHOZeoTCakfxtAg2Vp8/MArjrod5oS+FhDSuDEvHXJRkefC0VJIwRYZty+NpZMnWnlN09MJ5m/fqINQC+kpa0pvyDje4DMkkpskgDOGhrTSpiK9dwja3h2oCUawpzgRNbgmQtZQxqq4/Ag0gEbjjPIJa1E8YCQ2dFwtfDdOd9TZzV7pxxWoUxr2TrJjEbuzWqxUB2NYhgEgNlP2kCTmVTAALgmMY9bm0wo9d2vurg3ykaz9vCTyEDAWhlqFMAn+VwuL55p0ySwyuMFXH2IrqlvN/2cLEk0nQIY5wJulEgBNuMp+UdoS06F9EXlGKM9bPvZg7aLYoo7hdcy7ZnlEibKtBCNqOSMaEYNsxzqQXS05GrblINn4VtAa4tKBbtpiXenE1YAlKbV8Wa1ztfxteAx04b9EHWhzTxtEShYFW2jbZha/A9V2EvRX6VdAzRef+UCx1K9kgsNCHgrR1bd9P3VURTpszrrYbXfTrVUvm9CUkYUUPkhQMui5J5zvoGn6gzoWikOYN17i7c+0BINxVuZSgNqVuI+pHheGiR8VU+SyYwH5NOZ0OJi+T3eZRIYiNpNMFOHAKRW0YCTRpOBFZpRvBd90In7oeEkDHFu/vPH06TKgI6ZTJWH6ryD/aAINCwwCSXqo3jxI4+epgVWGoGTBaCyuK6xSyLWycIQq1BJTqfRimBhPIG0j6exdD/i+wBakR/jmcu/96Hf1wvaKioXj9Xs70V7qbbkfxrVg/H11mka6XcunaTDgFdIDWBtfMSdBcZpZILXhmrU8fJycg2QWb/VoKxDgIVW+8m/TYslBtbBxvd9tw0SaURF9gK0JnXvF3FyWj4UZdrJnMmDx/qcNpQyKMcZYNM/xWFpxU6l1G+zvunjUNc8nvmvxE/8rq65jL3o49PIekG7V1KmisMXjYtjOTyC6XvtlXC1vEcbZBBqF+vGmQV57c5arezMwF1nxwKNevzon6dnNQCte3/rB9PR9f2JN+uQVfCYLMw27n8iIHUCD8eVGWfSgWjmmpUDAbR8AFvUUSuU7BDL4QCtKjJLwIu74VcGC9d1GTDvdUcIeGlcmtcGS05CH6x1al2gpdl+/C/TxkWgRU8kfd99//pAq/3arnz3pFk5SehAJkvFXTlOtGacqXo4Cq6vDwBWf7A8lT66PyZ8L+VwgHZVABNwaZrSvLOXDLgG0o5afHdO2NgIk9GATn6xhb1yRdcAplNBS+PT9OsEreEBVtxeVCYUwIEfxaV59cJTTi4Hypj+2tULqPbbaT+Ni1vzIY6IHD7Qkq55gISppGWB1tKkNXQm21NpACbgrcfo33jbSsrgPJDdEdyt5vkMaKP1gKdA+/2J09L6u+W0ZVlw15TJoQJUWtW5DKyMEJTFF9ESmtT+s9pxEO4qnGjSriaqHHLtuiqHE7REtevK4Nb5WNG8BvOVcEsAEud99502AhavlldPA4k0RPOO0UQOpyhg7TZEdlrQzvTAgRW7dcQAVtlCfNGmA8BysmhZbdRe5aq/s3GFsMoBzb37WRN7weEPiBxe0K5K53t4nfjuRqRhPmDOKlAGrzZSZlDH2YTW2VNOsRGnxHdp5p1o3nWBtoYgV1GflMGZSjtqBWuOCAwiAkC8QX3iYOKtnjVmMooSoAi1dLpG3n4A5WiAdlU6eGnaDUflxelIeWCgdS++NJo2/E/OZ0UZhIHmQa8QWb6znUH/DGhXHbHQg52AtlMdcV9mvw76eHmaCCIl3jt5ss7XHUMFJt7K0eJoztpVCOsIA3VVjh5o0QUgAIBaf59BQGPVMUABGSoRjWU1p3bTAhqNhQ/ivH3d/ExyWtDOnNZO3O2AVvdbSbS7GRcXOpOApL6pu/TA0cohhzIUYLhxzlE1yVCbvgK4nclxRGR9J4EfFKFtxClrZ2lMvoG1+mNw61iffBacjLXqFm5I+zoM2mu0XeX3WtWrlbyUBbybaTDakff+/FOzJp8WO+qJkLz1voLk96vlAGo5WJlUIiCojOyrykt9ZuKt0gKZeUktnrN7/NYpsdpmSvHnciZznwpjnTuAJUcPtKQD16DTQnIeRAtwwWi/EXh9BqASTIBHSCmas57Q6LRDqX3AABS14rNSdhf8kmcvpzic04PyKnG6c2yfA6hy3K+DC5BRGCErmrVvdbEE673w2trqQmsDqxxVuwBYAytaPutg3WxCHWE5mqBdlQ5gsdlw1pHH7Yrz5ahNQ15AsyQcIA02W/obcKMp67h8ZZSmnP/uQKGtfdfpMpKEgB8tobXfC5g/Uk60MeACGd7pAupaIImGlbNqBwHAmjj5Xh2z5OBoD+OQnyrXVTJ8Pd/g3OGum8nRBy0p0AVw0XaViX/BhdNDmGU91XXJZNLxYSC0cIELV3plzDRtTDty0KocfDdleo9GDR+tU3FKswdUfakVCEUu5Ad8Gu2pHkBrzxWAz7mudSIjIAMmzerkGscuyRfAZYsKrHk17xDLuQHaLjN4h9r1G9AKytcVzRYQxyudeClHDWAdtAdwH32Uz2ZQAmxRhpTl+38e5wfS0eQpUwSCVha6Alic9d3wXdo8YK2wm8u/P/jDpF2BP7y7Thp0Aa0laPXaCGEF6IuUnFugJV1TzZq3NFj3wuO4DfgvBw4w8VoRAkCmcctZ+7SNXxgmJ8l38lp/A6sMfpMA/fDv7nB1unGeQ/dyH8f3u/8X8lv38v2uZa+5dorBlpM1U4FFu35Gjl7Ia6dS2jJatGdOzckoFdg/kQtfBVqaTjzU+Vx33NMGJ3jXUfwBHR776cnp6Hc8F7hpalyVkyXUxskTV5Vn6yRF4AZK1APvJVIsTaD9SB4/xLKAdlWKo0YjAq+0RwdXOOnc+Qw4LkDJKfj2D6YTz2lENONUwWkBVxjryd+28clH2/BMAAyUni/mzC95Aran0Nb1mwwD7bvIGWXppVWRnM5c45ISpj28A7esBJQAlpOF+/Yj9TfLWaAlJatYqLjl9johfcR3LfOWkxctjHYAd30/910Au21Zeuozgj+mS5htzpKchErrC5CZ7PDMAVh7YH+rVTMOm+/SpuKtcbTq8Ut9pU7SC9Auhm7HsoB2M+mOmuUzfhCnCVBpTJQAsLfSjrQnTWw1rjRzXvOb8dPwZ0+H5KAtgN2VLKDdTOYYbD2OycoW4AIhret1ux494KMcc5x1MAm6w7aAdleygHY7Aly56kA8UoDdJmh9N5cY8NAWOrAOWUC7mRQu0z1FA8JPgU1Yi1mnKbsTtZXMv6mFBL+z6gXEvcztAn+Rz8gC2s2kAGvRIPzVggD+ynmSQijRHAi75j2dAKzvCJXZClQrXwFtHLqKJIgubJdiLPIZWUC7mQAU7ipvVbQAL7U0KwvLYoGt7BYdThcBAOb+XXm2MrmkMGK0VsqOXdbG2vSY7l+Au2NZQLuZAFSP2dbZCeKscZ5s5XEQcT3P980phMXsAyrw9rREu4KtpjnEzWbLALxOF7SKdukV0zGnW4XMFtlUFtBuJrVA8KU22NngGCHAPS9a0TZ1Z3c98ZtpidZWbrmxFg5EBIAYmIH66cfrsqthBOaK217ZBlu7UYR+0vYiO5JlGXcz0S09J8Fj5n//aMCay+5YsdbaWHjdtEfLyS0x9yPNScvKO6CRX3I8f2iE1S/ni918Rxs8blT+AspRS7gLaHcqC2i3kgJuzP7MYzeei3vi5XrMfE8sL46KStCcJ6NtrXihBz3RxsLC8VumrTKSu62Q+f6iZXclC2jPJLpHFhYK4KBhiS/P/G56cro8gk8+bqOcBFoWCOt5E9HE+buWfJ30IiNMjqwNlLK79uM0xSMsC2i3I7qottYEuLamA6yjNHFXoazw2EpLFElwbP+FX54e6HxZKIE9XYDrUI2ey1BPiVm07G5lAe12RTdVKOvjKe1QYrcdDrUt562Jt3K2hMnwV85WTwaXfINKWNJdNOxZywLanYiu6uDtkQIAxl+BGWg5V7QsrSqdsQMVt1047FpkAe1uRbcBKVrQl2iLHgScPbHmfDx30azrlgW0ixw6WdTAIodOFtAucuhkAe0ih04W0C5y6GQB7SKHThbQLnLoZAHtIodMWvv/JzvNEy2lIwcAAAAASUVORK5CYII=;clipPath=inset(0.29% 9.54% 3.18% 4.34%);fontStyle=1" parent="1" vertex="1">
          <mxGeometry x="2060" y="-1676.1000000000001" width="91.9" height="103" as="geometry" />
        </mxCell>
        <mxCell id="mL6CW5X_RLIltcqBg0Fq-60" style="edgeStyle=orthogonalEdgeStyle;rounded=0;orthogonalLoop=1;jettySize=auto;html=1;" parent="1" source="mL6CW5X_RLIltcqBg0Fq-57" target="mL6CW5X_RLIltcqBg0Fq-59" edge="1">
          <mxGeometry relative="1" as="geometry" />
        </mxCell>
        <mxCell id="mL6CW5X_RLIltcqBg0Fq-61" style="edgeStyle=orthogonalEdgeStyle;rounded=0;orthogonalLoop=1;jettySize=auto;html=1;" parent="1" source="mL6CW5X_RLIltcqBg0Fq-62" target="mL6CW5X_RLIltcqBg0Fq-59" edge="1">
          <mxGeometry relative="1" as="geometry" />
        </mxCell>
        <mxCell id="mL6CW5X_RLIltcqBg0Fq-62" value="&lt;div&gt;&lt;b&gt;Role Assignment&lt;/b&gt;&lt;/div&gt;&lt;div&gt;env-role_assignment-adls_&lt;b&gt;[NAME]&lt;/b&gt;&lt;/div&gt;" style="shadow=0;dashed=0;html=1;strokeColor=none;fillColor=#4495D1;labelPosition=center;verticalLabelPosition=bottom;verticalAlign=top;align=center;outlineConnect=0;shape=mxgraph.veeam.2d.role;labelBackgroundColor=default;" parent="1" vertex="1">
          <mxGeometry x="1763.6" y="-1650" width="36.8" height="50.8" as="geometry" />
        </mxCell>
        <mxCell id="mL6CW5X_RLIltcqBg0Fq-63" style="edgeStyle=orthogonalEdgeStyle;rounded=0;orthogonalLoop=1;jettySize=auto;html=1;" parent="1" source="mL6CW5X_RLIltcqBg0Fq-64" target="mL6CW5X_RLIltcqBg0Fq-66" edge="1">
          <mxGeometry relative="1" as="geometry" />
        </mxCell>
        <mxCell id="mL6CW5X_RLIltcqBg0Fq-64" value="&lt;b&gt;Databricks Storage Credential&lt;/b&gt;&lt;div&gt;env-dbw_storage_credential&lt;/div&gt;" style="sketch=0;outlineConnect=0;fontColor=#232F3E;gradientColor=none;fillColor=#FF3333;strokeColor=none;dashed=0;verticalLabelPosition=bottom;verticalAlign=top;align=center;html=1;fontSize=12;fontStyle=0;aspect=fixed;pointerEvents=1;shape=mxgraph.aws4.credentials;labelBackgroundColor=default;" parent="1" vertex="1">
          <mxGeometry x="2180" y="-1525" width="48.82" height="68" as="geometry" />
        </mxCell>
        <mxCell id="mL6CW5X_RLIltcqBg0Fq-65" style="edgeStyle=orthogonalEdgeStyle;rounded=0;orthogonalLoop=1;jettySize=auto;html=1;" parent="1" source="mL6CW5X_RLIltcqBg0Fq-66" target="mL6CW5X_RLIltcqBg0Fq-54" edge="1">
          <mxGeometry relative="1" as="geometry" />
        </mxCell>
        <mxCell id="mL6CW5X_RLIltcqBg0Fq-66" value="&lt;b&gt;Databricks External Location&lt;/b&gt;" style="html=1;verticalLabelPosition=bottom;align=center;labelBackgroundColor=#ffffff;verticalAlign=top;strokeWidth=2;strokeColor=#FF3333;shadow=0;dashed=0;shape=mxgraph.ios7.icons.location;" parent="1" vertex="1">
          <mxGeometry x="1972" y="-1527" width="56" height="70" as="geometry" />
        </mxCell>
        <mxCell id="mL6CW5X_RLIltcqBg0Fq-67" value="&lt;b&gt;Databricks Catalogs&lt;/b&gt;" style="dashed=0;outlineConnect=0;html=1;align=center;labelPosition=center;verticalLabelPosition=bottom;verticalAlign=top;shape=mxgraph.weblogos.citeulike;fillColor=#FF3333;labelBackgroundColor=default;" parent="1" vertex="1">
          <mxGeometry x="2323.6" y="-1528.34" width="75.60000000000001" height="36" as="geometry" />
        </mxCell>
        <mxCell id="mL6CW5X_RLIltcqBg0Fq-74" value="&lt;font style=&quot;font-size: 30px;&quot;&gt;&lt;b style=&quot;background-color: light-dark(#ffffff, var(--ge-dark-color, #121212));&quot;&gt;databricks/root&lt;/b&gt;&lt;/font&gt;" style="text;html=1;align=left;verticalAlign=middle;whiteSpace=wrap;rounded=0;" parent="1" vertex="1">
          <mxGeometry x="77.40000000000003" y="-1268" width="117.4" height="30" as="geometry" />
        </mxCell>
        <mxCell id="mL6CW5X_RLIltcqBg0Fq-108" value="" style="group" parent="1" vertex="1" connectable="0">
          <mxGeometry x="490" y="-2960" width="186.29999999999995" height="200" as="geometry" />
        </mxCell>
        <mxCell id="mL6CW5X_RLIltcqBg0Fq-97" value="&lt;font style=&quot;font-size: 30px;&quot;&gt;&lt;b&gt;adf/root&lt;/b&gt;&lt;/font&gt;" style="text;html=1;align=center;verticalAlign=middle;whiteSpace=wrap;rounded=0;container=0;" parent="mL6CW5X_RLIltcqBg0Fq-108" vertex="1">
          <mxGeometry x="34.450000000000045" width="117.4" height="30" as="geometry" />
        </mxCell>
        <mxCell id="mL6CW5X_RLIltcqBg0Fq-95" value="" style="rounded=0;whiteSpace=wrap;html=1;fillColor=#FFFFFF;strokeColor=#004DCA;movable=1;resizable=1;rotatable=1;deletable=1;editable=1;locked=0;connectable=1;strokeWidth=3;container=0;" parent="mL6CW5X_RLIltcqBg0Fq-108" vertex="1">
          <mxGeometry y="40" width="186.3" height="160" as="geometry" />
        </mxCell>
        <mxCell id="mL6CW5X_RLIltcqBg0Fq-93" value="&lt;b&gt;Data Factory&lt;/b&gt;&lt;div&gt;env-adf&lt;/div&gt;" style="image;aspect=fixed;html=1;points=[];align=center;fontSize=12;image=img/lib/azure2/databases/Data_Factory.svg;container=0;" parent="mL6CW5X_RLIltcqBg0Fq-108" vertex="1">
          <mxGeometry x="59.15000000000009" y="70" width="68" height="68" as="geometry" />
        </mxCell>
        <mxCell id="mL6CW5X_RLIltcqBg0Fq-109" value="" style="group" parent="1" vertex="1" connectable="0">
          <mxGeometry x="489.44999999999993" y="-3200" width="186.30000000000007" height="200" as="geometry" />
        </mxCell>
        <mxCell id="mL6CW5X_RLIltcqBg0Fq-91" value="&lt;font style=&quot;font-size: 30px;&quot;&gt;&lt;b&gt;adls/root&lt;/b&gt;&lt;/font&gt;" style="text;html=1;align=center;verticalAlign=middle;whiteSpace=wrap;rounded=0;container=0;" parent="mL6CW5X_RLIltcqBg0Fq-109" vertex="1">
          <mxGeometry x="34.450000000000045" width="117.4" height="30" as="geometry" />
        </mxCell>
        <mxCell id="mL6CW5X_RLIltcqBg0Fq-88" value="" style="rounded=0;whiteSpace=wrap;html=1;fillColor=#FFFFFF;strokeColor=#009999;movable=1;resizable=1;rotatable=1;deletable=1;editable=1;locked=0;connectable=1;strokeWidth=3;container=0;" parent="mL6CW5X_RLIltcqBg0Fq-109" vertex="1">
          <mxGeometry y="40" width="186.3" height="160" as="geometry" />
        </mxCell>
        <mxCell id="mL6CW5X_RLIltcqBg0Fq-89" value="&lt;b&gt;Storage Accounts&lt;/b&gt;&lt;div&gt;env-adls_&lt;b&gt;[many]&lt;/b&gt;&lt;/div&gt;" style="image;aspect=fixed;html=1;points=[];align=center;fontSize=12;image=img/lib/azure2/storage/Storage_Accounts.svg;container=0;" parent="mL6CW5X_RLIltcqBg0Fq-109" vertex="1">
          <mxGeometry x="60.65000000000009" y="80" width="65" height="52" as="geometry" />
        </mxCell>
        <mxCell id="mL6CW5X_RLIltcqBg0Fq-111" value="" style="group" parent="1" vertex="1" connectable="0">
          <mxGeometry x="70" y="-3200" width="260" height="200" as="geometry" />
        </mxCell>
        <mxCell id="mL6CW5X_RLIltcqBg0Fq-68" value="&lt;font style=&quot;font-size: 30px;&quot;&gt;&lt;b&gt;root&lt;/b&gt;&lt;/font&gt;" style="text;html=1;align=center;verticalAlign=middle;whiteSpace=wrap;rounded=0;container=0;" parent="mL6CW5X_RLIltcqBg0Fq-111" vertex="1">
          <mxGeometry x="71.30000000000001" width="117.4" height="31.57894736842105" as="geometry" />
        </mxCell>
        <mxCell id="mL6CW5X_RLIltcqBg0Fq-75" value="" style="rounded=0;whiteSpace=wrap;html=1;fillColor=default;strokeColor=#666666;opacity=90;movable=1;resizable=1;rotatable=1;deletable=1;editable=1;locked=0;connectable=1;fontColor=#333333;strokeWidth=3;container=0;" parent="mL6CW5X_RLIltcqBg0Fq-111" vertex="1">
          <mxGeometry y="42.10526315789473" width="260" height="157.89473684210526" as="geometry" />
        </mxCell>
        <mxCell id="mL6CW5X_RLIltcqBg0Fq-70" value="&lt;b&gt;Resource Group&lt;/b&gt;&lt;div&gt;env-rg&lt;/div&gt;" style="image;aspect=fixed;html=1;points=[];align=center;fontSize=12;image=img/lib/azure2/general/Resource_Groups.svg;container=0;" parent="mL6CW5X_RLIltcqBg0Fq-111" vertex="1">
          <mxGeometry x="42.599999999999994" y="63.1578947368421" width="68" height="64" as="geometry" />
        </mxCell>
        <mxCell id="mL6CW5X_RLIltcqBg0Fq-71" value="&lt;b&gt;Virtual Network&lt;/b&gt;&lt;div&gt;env-vnet&lt;/div&gt;" style="image;aspect=fixed;html=1;points=[];align=center;fontSize=12;image=img/lib/azure2/networking/Virtual_Networks.svg;imageBackground=default;container=0;" parent="mL6CW5X_RLIltcqBg0Fq-111" vertex="1">
          <mxGeometry x="163.2" y="88.42105263157895" width="67" height="40" as="geometry" />
        </mxCell>
        <mxCell id="mL6CW5X_RLIltcqBg0Fq-113" value="" style="group" parent="1" vertex="1" connectable="0">
          <mxGeometry x="390" y="-2470" width="360" height="200" as="geometry" />
        </mxCell>
        <mxCell id="mL6CW5X_RLIltcqBg0Fq-81" value="&lt;font style=&quot;font-size: 30px;&quot;&gt;&lt;b&gt;databricks/root&lt;/b&gt;&lt;/font&gt;" style="text;html=1;align=center;verticalAlign=middle;whiteSpace=wrap;rounded=0;container=0;" parent="mL6CW5X_RLIltcqBg0Fq-113" vertex="1">
          <mxGeometry x="121.29999999999995" width="117.4" height="30" as="geometry" />
        </mxCell>
        <mxCell id="mL6CW5X_RLIltcqBg0Fq-78" value="" style="rounded=0;whiteSpace=wrap;html=1;fillColor=#FFFFFF;strokeColor=#FF2A01;movable=1;resizable=1;rotatable=1;deletable=1;editable=1;locked=0;connectable=1;strokeWidth=3;container=0;" parent="mL6CW5X_RLIltcqBg0Fq-113" vertex="1">
          <mxGeometry y="40" width="360" height="160" as="geometry" />
        </mxCell>
        <mxCell id="mL6CW5X_RLIltcqBg0Fq-69" value="&lt;b&gt;Databricks Workspace&lt;/b&gt;&lt;div&gt;env-dbw&lt;/div&gt;" style="image;aspect=fixed;html=1;points=[];align=center;fontSize=12;image=img/lib/azure2/analytics/Azure_Databricks.svg;container=0;" parent="mL6CW5X_RLIltcqBg0Fq-113" vertex="1">
          <mxGeometry x="58" y="70" width="62.8" height="68" as="geometry" />
        </mxCell>
        <mxCell id="mL6CW5X_RLIltcqBg0Fq-85" value="&lt;b&gt;DNS Zone&lt;/b&gt;&lt;div&gt;privatelink.azuredatabricks.net&lt;/div&gt;" style="image;aspect=fixed;html=1;points=[];align=center;fontSize=12;image=img/lib/azure2/networking/DNS_Zones.svg;container=0;" parent="mL6CW5X_RLIltcqBg0Fq-113" vertex="1">
          <mxGeometry x="230" y="72" width="64" height="64" as="geometry" />
        </mxCell>
        <mxCell id="mL6CW5X_RLIltcqBg0Fq-114" style="edgeStyle=orthogonalEdgeStyle;rounded=0;orthogonalLoop=1;jettySize=auto;html=1;strokeWidth=5;" parent="1" source="mL6CW5X_RLIltcqBg0Fq-75" target="mL6CW5X_RLIltcqBg0Fq-98" edge="1">
          <mxGeometry relative="1" as="geometry">
            <Array as="points">
              <mxPoint x="200" y="-2600" />
            </Array>
          </mxGeometry>
        </mxCell>
        <mxCell id="mL6CW5X_RLIltcqBg0Fq-124" value="" style="group" parent="1" vertex="1" connectable="0">
          <mxGeometry x="922.22" y="-2470" width="361.85000000000014" height="200" as="geometry" />
        </mxCell>
        <mxCell id="mL6CW5X_RLIltcqBg0Fq-122" value="" style="rounded=0;whiteSpace=wrap;html=1;fillColor=#FFFFFF;strokeColor=#FF2A01;movable=1;resizable=1;rotatable=1;deletable=1;editable=1;locked=0;connectable=1;strokeWidth=3;container=0;" parent="mL6CW5X_RLIltcqBg0Fq-124" vertex="1">
          <mxGeometry x="87.77999999999997" y="40" width="186.3" height="160" as="geometry" />
        </mxCell>
        <mxCell id="mL6CW5X_RLIltcqBg0Fq-119" value="&lt;b&gt;Unity Catalog&lt;/b&gt;" style="image;aspect=fixed;html=1;points=[];align=center;fontSize=12;image=img/lib/azure2/analytics/Azure_Databricks.svg;" parent="mL6CW5X_RLIltcqBg0Fq-124" vertex="1">
          <mxGeometry x="149.52999999999997" y="70" width="62.8" height="68" as="geometry" />
        </mxCell>
        <mxCell id="mL6CW5X_RLIltcqBg0Fq-121" value="&lt;font style=&quot;font-size: 30px;&quot;&gt;&lt;b&gt;dbricks/unity-catalog&lt;/b&gt;&lt;/font&gt;" style="text;html=1;align=center;verticalAlign=middle;whiteSpace=wrap;rounded=0;container=0;" parent="mL6CW5X_RLIltcqBg0Fq-124" vertex="1">
          <mxGeometry width="361.85" height="30" as="geometry" />
        </mxCell>
        <mxCell id="mL6CW5X_RLIltcqBg0Fq-125" value="v" style="edgeStyle=orthogonalEdgeStyle;rounded=0;orthogonalLoop=1;jettySize=auto;html=1;strokeWidth=5;strokeColor=#FF2A01;" parent="1" source="mL6CW5X_RLIltcqBg0Fq-78" target="mL6CW5X_RLIltcqBg0Fq-122" edge="1">
          <mxGeometry relative="1" as="geometry" />
        </mxCell>
        <mxCell id="mL6CW5X_RLIltcqBg0Fq-126" value="&lt;b&gt;Databricks Shared Clusters&lt;/b&gt;&lt;div&gt;env-cluster_shared_&lt;b&gt;[NAME]&lt;/b&gt;&lt;/div&gt;" style="image;aspect=fixed;html=1;points=[];align=center;fontSize=12;image=img/lib/azure2/databases/Virtual_Clusters.svg;" parent="1" vertex="1">
          <mxGeometry x="1070.22" y="-2150" width="66" height="64" as="geometry" />
        </mxCell>
        <mxCell id="mL6CW5X_RLIltcqBg0Fq-130" value="&lt;font style=&quot;font-size: 30px;&quot;&gt;&lt;b&gt;dbricks/shared-clusters&lt;/b&gt;&lt;/font&gt;" style="text;html=1;align=center;verticalAlign=middle;whiteSpace=wrap;rounded=0;container=0;" parent="1" vertex="1">
          <mxGeometry x="922.22" y="-2220" width="361.85" height="30" as="geometry" />
        </mxCell>
        <mxCell id="mL6CW5X_RLIltcqBg0Fq-131" value="v" style="edgeStyle=orthogonalEdgeStyle;rounded=0;orthogonalLoop=1;jettySize=auto;html=1;strokeWidth=5;strokeColor=#FF2A01;" parent="1" source="mL6CW5X_RLIltcqBg0Fq-78" target="mL6CW5X_RLIltcqBg0Fq-128" edge="1">
          <mxGeometry relative="1" as="geometry">
            <mxPoint x="690" y="-2118.67" as="sourcePoint" />
            <mxPoint x="950" y="-2118.67" as="targetPoint" />
            <Array as="points">
              <mxPoint x="890" y="-2350" />
              <mxPoint x="890" y="-2100" />
            </Array>
          </mxGeometry>
        </mxCell>
        <mxCell id="mL6CW5X_RLIltcqBg0Fq-133" style="edgeStyle=orthogonalEdgeStyle;rounded=0;orthogonalLoop=1;jettySize=auto;html=1;entryX=0;entryY=0.5;entryDx=0;entryDy=0;strokeWidth=5;" parent="1" source="mL6CW5X_RLIltcqBg0Fq-75" target="mL6CW5X_RLIltcqBg0Fq-95" edge="1">
          <mxGeometry relative="1" as="geometry">
            <Array as="points">
              <mxPoint x="200" y="-2840" />
            </Array>
          </mxGeometry>
        </mxCell>
        <mxCell id="mL6CW5X_RLIltcqBg0Fq-137" value="" style="rounded=1;whiteSpace=wrap;html=1;fillColor=#FFFFFF;strokeColor=#004DCA;movable=1;resizable=1;rotatable=1;deletable=1;editable=1;locked=0;connectable=1;strokeWidth=3;container=0;" parent="1" vertex="1">
          <mxGeometry x="1013.77" y="-2920" width="186.3" height="160" as="geometry" />
        </mxCell>
        <mxCell id="mL6CW5X_RLIltcqBg0Fq-134" value="&lt;b&gt;Linked Service&lt;/b&gt;&lt;div&gt;env-linked_service-adls_&lt;b&gt;[many]&lt;/b&gt;&lt;/div&gt;" style="image;aspect=fixed;html=1;points=[];align=center;fontSize=12;image=img/lib/azure2/networking/Private_Link_Hub.svg;" parent="1" vertex="1">
          <mxGeometry x="1078.3799999999999" y="-2890" width="58.8" height="68" as="geometry" />
        </mxCell>
        <mxCell id="mL6CW5X_RLIltcqBg0Fq-136" value="&lt;font style=&quot;font-size: 30px;&quot;&gt;&lt;b&gt;adf/linked-services&lt;/b&gt;&lt;/font&gt;" style="text;html=1;align=center;verticalAlign=middle;whiteSpace=wrap;rounded=0;container=0;" parent="1" vertex="1">
          <mxGeometry x="960" y="-2960" width="295.55" height="30" as="geometry" />
        </mxCell>
        <mxCell id="mL6CW5X_RLIltcqBg0Fq-145" style="edgeStyle=orthogonalEdgeStyle;rounded=0;orthogonalLoop=1;jettySize=auto;html=1;strokeColor=#004DCA;strokeWidth=5;" parent="1" source="mL6CW5X_RLIltcqBg0Fq-95" target="mL6CW5X_RLIltcqBg0Fq-137" edge="1">
          <mxGeometry relative="1" as="geometry" />
        </mxCell>
        <mxCell id="mL6CW5X_RLIltcqBg0Fq-146" style="edgeStyle=orthogonalEdgeStyle;rounded=0;orthogonalLoop=1;jettySize=auto;html=1;strokeWidth=5;strokeColor=#004DCA;" parent="1" source="mL6CW5X_RLIltcqBg0Fq-98" target="mL6CW5X_RLIltcqBg0Fq-137" edge="1">
          <mxGeometry relative="1" as="geometry">
            <Array as="points">
              <mxPoint x="890" y="-2600" />
              <mxPoint x="890" y="-2840" />
            </Array>
          </mxGeometry>
        </mxCell>
        <mxCell id="mL6CW5X_RLIltcqBg0Fq-107" value="" style="group" parent="1" vertex="1" connectable="0">
          <mxGeometry x="489.4499999999999" y="-2720" width="186.30000000000007" height="200" as="geometry" />
        </mxCell>
        <mxCell id="mL6CW5X_RLIltcqBg0Fq-100" value="&lt;font style=&quot;font-size: 30px;&quot;&gt;&lt;b&gt;akv/root&lt;/b&gt;&lt;/font&gt;" style="text;html=1;align=center;verticalAlign=middle;whiteSpace=wrap;rounded=0;container=0;" parent="mL6CW5X_RLIltcqBg0Fq-107" vertex="1">
          <mxGeometry x="34.450000000000045" width="117.4" height="30" as="geometry" />
        </mxCell>
        <mxCell id="mL6CW5X_RLIltcqBg0Fq-98" value="" style="rounded=0;whiteSpace=wrap;html=1;fillColor=#FFFFFF;strokeColor=#FFBE00;movable=1;resizable=1;rotatable=1;deletable=1;editable=1;locked=0;connectable=1;strokeWidth=3;container=0;" parent="mL6CW5X_RLIltcqBg0Fq-107" vertex="1">
          <mxGeometry y="40" width="186.3" height="160" as="geometry" />
        </mxCell>
        <mxCell id="mL6CW5X_RLIltcqBg0Fq-94" value="&lt;b&gt;Key Vault&lt;/b&gt;&lt;div&gt;env-akv&lt;/div&gt;" style="image;aspect=fixed;html=1;points=[];align=center;fontSize=12;image=img/lib/azure2/security/Key_Vaults.svg;container=0;" parent="mL6CW5X_RLIltcqBg0Fq-107" vertex="1">
          <mxGeometry x="59.15000000000009" y="70" width="68" height="68" as="geometry" />
        </mxCell>
        <mxCell id="mL6CW5X_RLIltcqBg0Fq-147" style="edgeStyle=orthogonalEdgeStyle;rounded=0;orthogonalLoop=1;jettySize=auto;html=1;strokeWidth=5;strokeColor=#004DCA;" parent="1" source="mL6CW5X_RLIltcqBg0Fq-88" target="mL6CW5X_RLIltcqBg0Fq-137" edge="1">
          <mxGeometry relative="1" as="geometry">
            <Array as="points">
              <mxPoint x="890" y="-3080" />
              <mxPoint x="890" y="-2840" />
            </Array>
          </mxGeometry>
        </mxCell>
      </root>
    </mxGraphModel>
  </diagram>
</mxfile>
